<?xml version="1.0" encoding="utf-8"?>
<!-- Generator: Adobe Illustrator 24.2.1, SVG Export Plug-In . SVG Version: 6.00 Build 0)  -->
<svg version="1.1" id="Layer_1" xmlns="http://www.w3.org/2000/svg" xmlns:xlink="http://www.w3.org/1999/xlink" x="0px" y="0px"
	 width="32px" height="32px" viewBox="0 0 32 32" style="enable-background:new 0 0 32 32;" xml:space="preserve">
<style type="text/css">
	.st0{fill:#FFFFFF;}
</style>
<path class="st0" d="M16,7.3c-2.5,0-4.5,2-4.5,4.5c0,2.5,2,4.5,4.5,4.5s4.5-2,4.5-4.5C20.5,9.3,18.5,7.3,16,7.3z M16,13.7
	c-1,0-1.9-0.8-1.9-1.9c0-1,0.8-1.9,1.9-1.9c1,0,1.9,0.8,1.9,1.9C17.9,12.9,17,13.7,16,13.7z"/>
<path class="st0" d="M17.6,19.9c1.8-0.4,2.9-1.2,3-1.3c0.5-0.4,0.6-1.2,0.2-1.7c-0.4-0.5-1.2-0.6-1.7-0.2c0,0-1.2,0.9-3.1,0.9
	c-1.9,0-3.1-0.9-3.1-0.9c-0.5-0.4-1.3-0.3-1.7,0.2c-0.4,0.5-0.3,1.3,0.2,1.7c0.1,0,1.2,0.9,3.1,1.3l-2.6,2.7c-0.5,0.5-0.5,1.3,0,1.7
	c0.2,0.2,0.5,0.3,0.9,0.3c0.3,0,0.6-0.1,0.9-0.4l2.4-2.6l2.7,2.6c0.5,0.5,1.3,0.5,1.7,0c0.5-0.5,0.5-1.3,0-1.7L17.6,19.9z"/>
<path class="st0" d="M15.9,17.6C15.9,17.6,15.9,17.6,15.9,17.6C15.9,17.6,15.9,17.6,15.9,17.6z"/>
</svg>
