<?xml version="1.0" encoding="utf-8"?>
<!-- Generator: Adobe Illustrator 24.2.1, SVG Export Plug-In . SVG Version: 6.00 Build 0)  -->
<svg version="1.1" id="Layer_1" xmlns="http://www.w3.org/2000/svg" xmlns:xlink="http://www.w3.org/1999/xlink" x="0px" y="0px"
	 width="32px" height="32px" viewBox="0 0 32 32" style="enable-background:new 0 0 32 32;" xml:space="preserve">
<style type="text/css">
	.st0{fill:#FFFFFF;}
</style>
<path class="st0" d="M18.8,15.9h-7.4v-3h7.4c0.4,0,0.7,0.1,0.9,0.2c0.2,0.1,0.2,0.4,0.2,0.7v1.1c0,0.4-0.1,0.6-0.2,0.8
	C19.6,15.8,19.3,15.9,18.8,15.9L18.8,15.9z M19.3,10.1H8.2v12.7h3.2v-4.1h5.8l2.8,4.1h3.5l-3-4.2c1.1-0.2,1.6-0.5,2-1.1
	c0.4-0.6,0.6-1.5,0.6-2.7v-1c0-0.7-0.1-1.3-0.2-1.7c-0.1-0.4-0.4-0.8-0.7-1.2c-0.3-0.3-0.7-0.6-1.2-0.7C20.6,10.1,20,10.1,19.3,10.1
	L19.3,10.1z"/>
<path class="st0" d="M23.8,10.1c1,0,1.8-0.8,1.8-1.8c0-1-0.8-1.8-1.8-1.8s-1.8,0.8-1.8,1.8C21.9,9.2,22.8,10.1,23.8,10.1z"/>
</svg>
