<?xml version="1.0" encoding="utf-8"?>
<!-- Generator: Adobe Illustrator 24.2.1, SVG Export Plug-In . SVG Version: 6.00 Build 0)  -->
<svg version="1.1" id="Layer_1" xmlns="http://www.w3.org/2000/svg" xmlns:xlink="http://www.w3.org/1999/xlink" x="0px" y="0px"
	 width="32px" height="32px" viewBox="0 0 32 32" style="enable-background:new 0 0 32 32;" xml:space="preserve">
<style type="text/css">
	.st0{fill:#FFFFFF;}
</style>
<path class="st0" d="M0,15.5c0,0.2,0,0.3,0,0.5s0,0.3,0,0.5c6.5,0.1,10.1,0.5,12.6,3c2.4,2.4,2.9,6.1,3,12.6c0.2,0,0.3,0,0.5,0
	s0.3,0,0.5,0c0.1-6.5,0.5-10.1,3-12.6c2.4-2.4,6.1-2.9,12.6-3c0-0.2,0-0.3,0-0.5s0-0.3,0-0.5c-6.5-0.1-10.1-0.5-12.6-3
	C17,10.1,16.6,6.5,16.5,0c-0.2,0-0.3,0-0.5,0s-0.3,0-0.5,0c-0.1,6.5-0.5,10.1-3,12.6C10.1,15,6.5,15.4,0,15.5z"/>
</svg>
