<?xml version="1.0" encoding="utf-8"?>
<!-- Generator: Adobe Illustrator 24.2.1, SVG Export Plug-In . SVG Version: 6.00 Build 0)  -->
<svg version="1.1" id="Layer_1" xmlns="http://www.w3.org/2000/svg" xmlns:xlink="http://www.w3.org/1999/xlink" x="0px" y="0px"
	 width="32px" height="32px" viewBox="0 0 32 32" style="enable-background:new 0 0 32 32;" xml:space="preserve">
<style type="text/css">
	.st0{fill:#FFFFFF;}
</style>
<path class="st0" d="M8.3,15.6l9.3-3.8c0.9-0.4,4-1.7,4-1.7S23,9.6,22.9,11c0,0.6-0.4,2.5-0.7,4.6l-1,6.2c0,0-0.1,0.9-0.8,1.1
	c-0.7,0.2-1.8-0.6-2-0.7c-0.2-0.1-3-1.9-4-2.8c-0.3-0.2-0.6-0.7,0-1.3c1.4-1.3,3.1-2.9,4.2-4c0.5-0.5,1-1.6-1-0.2L12,17.6
	c0,0-0.6,0.4-1.8,0c-1.2-0.4-2.6-0.8-2.6-0.8S6.6,16.3,8.3,15.6z"/>
</svg>
