<svg width="346" height="264" viewBox="0 0 346 264" fill="none" xmlns="http://www.w3.org/2000/svg">
<path d="M7.722 57H1.782V13.176H18.546V18.588H7.722V57ZM41.3707 24.198V46.44C41.3707 53.766 37.6747 57.396 31.0747 57.396C24.2767 57.396 20.5807 53.436 20.5807 46.308V24.066C20.5807 16.938 24.4087 12.78 31.0087 12.78C37.6087 12.78 41.3707 17.07 41.3707 24.198ZM35.5627 46.77V23.67C35.5627 20.238 33.9127 18.324 30.9427 18.324C28.1047 18.324 26.4547 20.172 26.4547 23.604V46.704C26.4547 50.136 28.0387 51.918 31.0087 51.918C33.9127 51.918 35.5627 50.268 35.5627 46.77ZM58.8808 46.77V39.114H64.4908V46.44C64.4908 53.766 60.9928 57.396 54.3928 57.396C47.5948 57.396 44.0968 53.436 44.0968 46.308V23.736C44.0968 16.41 47.5948 12.78 54.1948 12.78C60.8608 12.78 64.4908 16.41 64.4908 23.67V28.884H58.8808V23.67C58.8808 20.238 57.3628 18.324 54.3928 18.324C51.4888 18.324 49.9708 20.172 49.9708 23.604V46.77C49.9708 50.136 51.2908 51.918 54.3928 51.918C57.3628 51.918 58.8808 50.268 58.8808 46.77ZM82.2633 46.704V36.408H81.9993C80.8113 38.85 78.1713 40.368 74.9373 40.368C69.8553 40.368 67.4133 36.606 67.4133 29.412V13.176H73.2213V29.742C73.2213 33.108 74.3433 34.956 77.2473 34.956C80.0853 34.956 81.6033 33.306 82.2633 30.402V13.176H88.0713V46.308C88.0713 53.436 84.6393 57.396 77.7753 57.396C71.1753 57.396 67.4133 53.832 67.4133 46.44V42.414H73.2213V46.77C73.2213 50.268 74.8053 51.918 77.7093 51.918C80.7453 51.918 82.2633 50.136 82.2633 46.704ZM116.166 68.022H111.678V57H93.4622V68.022H88.9742V51.588H89.7662C90.4922 51.588 90.9542 51.522 91.3502 51.258C93.0002 50.004 93.7262 46.77 94.2542 31.656L94.9142 13.176H113.46V51.588H116.166V68.022ZM107.586 51.588V18.522H99.6662L99.2042 31.656C98.9402 38.652 98.4782 47.958 96.8942 51.588H107.586ZM140.277 57H134.469L132.753 46.704H124.701L123.117 57H117.375L124.833 13.176H132.819L140.277 57ZM128.595 22.416L125.493 41.622H131.961L128.859 22.416H128.595ZM154.471 39.576H148.201V57H142.261V13.176H154.471C160.543 13.176 162.787 16.41 162.787 21.954V30.798C162.787 36.342 160.543 39.576 154.471 39.576ZM148.201 18.522V34.428H153.283C156.055 34.428 157.177 32.778 157.177 29.874V22.614C157.177 19.974 156.055 18.522 153.283 18.522H148.201ZM180.04 46.77V39.114H185.65V46.44C185.65 53.766 182.152 57.396 175.552 57.396C168.754 57.396 165.256 53.436 165.256 46.308V23.736C165.256 16.41 168.754 12.78 175.354 12.78C182.02 12.78 185.65 16.41 185.65 23.67V28.884H180.04V23.67C180.04 20.238 178.522 18.324 175.552 18.324C172.648 18.324 171.13 20.172 171.13 23.604V46.77C171.13 50.136 172.45 51.918 175.552 51.918C178.522 51.918 180.04 50.268 180.04 46.77ZM199.762 57H193.888V18.522H186.562V13.176H207.22V18.522H199.762V57ZM222.308 57H209.504V13.176H221.45C227.522 13.176 229.766 16.41 229.766 21.954V26.442C229.766 30.468 228.38 32.91 225.344 33.636V33.9C228.644 34.494 230.36 36.474 230.36 41.16V49.476C230.36 54.492 228.182 57 222.308 57ZM224.486 47.628V40.764C224.486 37.728 223.298 36.474 220.328 36.474H215.312V51.852H220.526C223.298 51.852 224.486 50.466 224.486 47.628ZM224.222 27.036V22.812C224.222 19.842 223.298 18.324 220.328 18.324H215.312V31.524H220.394C222.704 31.524 224.222 30.402 224.222 27.036ZM249.253 57H232.885V13.176H248.725V18.522H238.693V31.326H247.867V36.738H238.693V51.654H249.253V57ZM272.551 57H266.677V36.408H257.437V57H251.497V13.176H257.437V31.128H266.677V13.176H272.551V57ZM296.576 57H290.702V36.408H281.462V57H275.522V13.176H281.462V31.128H290.702V13.176H296.576V57ZM321.46 57H315.652L313.936 46.704H305.884L304.3 57H298.558L306.016 13.176H314.002L321.46 57ZM309.778 22.416L306.676 41.622H313.144L310.042 22.416H309.778ZM328.328 57H322.322L327.47 38.52C323.708 37.266 323.048 33.702 323.048 29.016V23.736C323.048 17.268 324.17 13.176 331.298 13.176H343.508V57H337.568V39.048H333.014L328.328 57ZM328.592 29.61C328.592 33.042 330.044 34.098 332.486 34.098H337.568V18.522H332.486C329.45 18.522 328.592 20.37 328.592 23.736V29.61Z" fill="white"/>
<path d="M27.1376 112.44V110.262H32.7476V112.77C32.7476 116.268 34.2656 117.918 37.1696 117.918C40.1396 117.918 41.6576 116.136 41.6576 112.704V102.474H33.9356V97.524H41.6576V89.604C41.6576 86.172 40.1396 84.324 37.2356 84.324C34.2656 84.324 32.7476 86.238 32.7476 89.67V91.584H27.1376V90.198C27.1376 83.07 30.7016 78.78 37.3676 78.78C43.9016 78.78 47.5316 82.938 47.5316 90.066V112.308C47.5316 119.436 44.0336 123.396 37.2356 123.396C30.6356 123.396 27.1376 119.766 27.1376 112.44ZM72.1682 123H66.1622L59.8922 104.058H59.6282L56.4602 110.262V123H50.4542V79.176H56.4602V98.844H56.7242L66.2282 79.176H72.2342L63.9842 96.534L72.1682 123ZM87.459 112.77V105.114H93.069V112.44C93.069 119.766 89.571 123.396 82.971 123.396C76.173 123.396 72.675 119.436 72.675 112.308V89.736C72.675 82.41 76.173 78.78 82.773 78.78C89.439 78.78 93.069 82.41 93.069 89.67V94.884H87.459V89.67C87.459 86.238 85.941 84.324 82.971 84.324C80.067 84.324 78.549 86.172 78.549 89.604V112.77C78.549 116.136 79.869 117.918 82.971 117.918C85.941 117.918 87.459 116.268 87.459 112.77ZM117.046 123H111.172V84.522H101.932V123H95.9916V79.176H117.046V123ZM136.385 123H120.017V79.176H135.857V84.522H125.825V97.326H134.999V102.738H125.825V117.654H136.385V123ZM150.839 105.576H144.569V123H138.629V79.176H150.839C156.911 79.176 159.155 82.41 159.155 87.954V96.798C159.155 102.342 156.911 105.576 150.839 105.576ZM144.569 84.522V100.428H149.651C152.423 100.428 153.545 98.778 153.545 95.874V88.614C153.545 85.974 152.423 84.522 149.651 84.522H144.569ZM173.328 123H167.454V84.522H160.128V79.176H180.786V84.522H173.328V123ZM205.312 123H199.636V91.386H199.372L189.208 123H183.07V79.176H188.812V108.744H189.076L198.976 79.176H205.312V123ZM228.716 107.292V112.308C228.716 119.436 225.152 123.396 218.354 123.396C211.754 123.396 208.256 119.766 208.256 112.44V110.262H213.866V112.77C213.866 116.268 215.318 117.918 218.222 117.918C221.258 117.918 222.842 116.136 222.842 112.704V106.896C222.842 103.992 221.588 102.342 217.892 102.342H215.12V97.392H218.09C221.72 97.392 222.578 95.61 222.578 93.036V88.944C222.578 86.37 221.258 84.324 218.222 84.324C215.45 84.324 213.866 86.238 213.866 89.01V91.584H208.256V89.538C208.256 83.004 211.952 78.78 218.288 78.78C225.152 78.78 228.056 83.664 228.056 88.35V92.442C228.056 96.468 226.406 98.976 223.436 99.504V99.768C226.208 100.296 228.716 102.408 228.716 107.292ZM251.809 123H246.001L244.285 112.704H236.233L234.649 123H228.907L236.365 79.176H244.351L251.809 123ZM240.127 88.416L237.025 107.622H243.493L240.391 88.416H240.127Z" fill="white"/>
<path d="M328.219 100.281C328.927 99.5734 328.927 98.4266 328.219 97.7194L316.694 86.1935C315.986 85.4862 314.84 85.4862 314.132 86.1935C313.425 86.9008 313.425 88.0475 314.132 88.7548L324.378 99L314.132 109.245C313.425 109.952 313.425 111.099 314.132 111.806C314.84 112.514 315.986 112.514 316.694 111.806L328.219 100.281ZM266.939 100.811L326.939 100.811L326.939 97.1889L266.939 97.1889L266.939 100.811Z" fill="white"/>
<path d="M77.5839 189H71.8419V180.156H67.4859C61.4139 180.156 59.2359 176.922 59.2359 171.378V160.488C59.2359 154.944 61.4139 151.71 67.4859 151.71H71.8419V145.176H77.5839V151.71H81.8739C87.9459 151.71 90.1899 154.944 90.1899 160.488V171.378C90.1899 176.922 87.9459 180.156 81.8739 180.156H77.5839V189ZM84.9759 170.454V161.412C84.9759 158.508 83.7879 156.858 81.0819 156.858H77.5839V175.008H81.0819C83.7879 175.008 84.9759 173.358 84.9759 170.454ZM71.8419 175.008V156.858H68.3439C65.5719 156.858 64.4499 158.508 64.4499 161.412V170.454C64.4499 173.358 65.5719 175.008 68.3439 175.008H71.8419ZM107.531 178.704V168.408H107.267C106.079 170.85 103.439 172.368 100.205 172.368C95.1229 172.368 92.6809 168.606 92.6809 161.412V145.176H98.4889V161.742C98.4889 165.108 99.6109 166.956 102.515 166.956C105.353 166.956 106.871 165.306 107.531 162.402V145.176H113.339V178.308C113.339 185.436 109.907 189.396 103.043 189.396C96.4429 189.396 92.6809 185.832 92.6809 178.44V174.414H98.4889V178.77C98.4889 182.268 100.073 183.918 102.977 183.918C106.013 183.918 107.531 182.136 107.531 178.704ZM137.374 189H131.5V168.408H122.26V189H116.32V145.176H122.26V163.128H131.5V145.176H137.374V189ZM166.877 200.022H162.389V189H144.173V200.022H139.685V183.588H140.477C141.203 183.588 141.665 183.522 142.061 183.258C143.711 182.004 144.437 178.77 144.965 163.656L145.625 145.176H164.171V183.588H166.877V200.022ZM158.297 183.588V150.522H150.377L149.915 163.656C149.651 170.652 149.189 179.958 147.605 183.588H158.297ZM190.988 189H185.18L183.464 178.704H175.412L173.828 189H168.086L175.544 145.176H183.53L190.988 189ZM179.306 154.416L176.204 173.622H182.672L179.57 154.416H179.306ZM223.927 189H218.647V164.778C218.647 162.072 218.713 158.904 218.845 155.274H218.581L211.189 189H205.711L198.319 155.274H198.055C198.187 158.904 198.253 162.072 198.253 164.778V189H192.973V145.176H201.949L208.417 177.318H208.681L215.149 145.176H223.927V189ZM243.227 189H226.859V145.176H242.699V150.522H232.667V163.326H241.841V168.738H232.667V183.654H243.227V189ZM266.525 189H260.651V168.408H251.411V189H245.471V145.176H251.411V163.128H260.651V145.176H266.525V189ZM282.168 189H276.294V150.522H268.968V145.176H289.626V150.522H282.168V189Z" fill="white"/>
<path d="M39.9416 255H27.1376V211.176H39.0836C45.1556 211.176 47.3996 214.41 47.3996 219.954V224.442C47.3996 228.468 46.0136 230.91 42.9776 231.636V231.9C46.2776 232.494 47.9936 234.474 47.9936 239.16V247.476C47.9936 252.492 45.8156 255 39.9416 255ZM42.1196 245.628V238.764C42.1196 235.728 40.9316 234.474 37.9616 234.474H32.9456V249.852H38.1596C40.9316 249.852 42.1196 248.466 42.1196 245.628ZM41.8556 225.036V220.812C41.8556 217.842 40.9316 216.324 37.9616 216.324H32.9456V229.524H38.0276C40.3376 229.524 41.8556 228.402 41.8556 225.036ZM71.7861 255H65.9781L64.2621 244.704H56.2101L54.6261 255H48.8841L56.3421 211.176H64.3281L71.7861 255ZM60.1041 220.416L57.0021 239.622H63.4701L60.3681 220.416H60.1041ZM106.639 255H73.7707V211.176H79.7107V249.588H87.4327V211.176H92.9767V249.588H100.699V211.176H106.639V255ZM125.895 255H109.527V211.176H125.367V216.522H115.335V229.326H124.509V234.738H115.335V249.654H125.895V255ZM134.078 255H128.138V211.176H144.902V216.588H134.078V255ZM167.727 222.198V244.44C167.727 251.766 164.031 255.396 157.431 255.396C150.633 255.396 146.937 251.436 146.937 244.308V222.066C146.937 214.938 150.765 210.78 157.365 210.78C163.965 210.78 167.727 215.07 167.727 222.198ZM161.919 244.77V221.67C161.919 218.238 160.269 216.324 157.299 216.324C154.461 216.324 152.811 218.172 152.811 221.604V244.704C152.811 248.136 154.395 249.918 157.365 249.918C160.269 249.918 161.919 248.268 161.919 244.77ZM192.442 244.704V234.408H192.178C190.99 236.85 188.35 238.368 185.116 238.368C180.034 238.368 177.592 234.606 177.592 227.412V211.176H183.4V227.742C183.4 231.108 184.522 232.956 187.426 232.956C190.264 232.956 191.782 231.306 192.442 228.402V211.176H198.25V244.308C198.25 251.436 194.818 255.396 187.954 255.396C181.354 255.396 177.592 251.832 177.592 244.44V240.414H183.4V244.77C183.4 248.268 184.984 249.918 187.888 249.918C190.924 249.918 192.442 248.136 192.442 244.704ZM216.015 244.77V237.114H221.625V244.44C221.625 251.766 218.127 255.396 211.527 255.396C204.729 255.396 201.231 251.436 201.231 244.308V221.736C201.231 214.41 204.729 210.78 211.329 210.78C217.995 210.78 221.625 214.41 221.625 221.67V226.884H216.015V221.67C216.015 218.238 214.497 216.324 211.527 216.324C208.623 216.324 207.105 218.172 207.105 221.604V244.77C207.105 248.136 208.425 249.918 211.527 249.918C214.497 249.918 216.015 248.268 216.015 244.77ZM245.601 255H239.727V216.522H230.487V255H224.547V211.176H245.601V255ZM264.941 255H248.573V211.176H264.413V216.522H254.381V229.326H263.555V234.738H254.381V249.654H264.941V255ZM284.212 211.176H290.02L281.836 232.23L290.284 255H284.212L278.338 238.632H278.074L272.134 255H266.194L274.642 232.824L266.458 211.176H272.398L278.14 226.752H278.404L284.212 211.176ZM314.089 255H308.281L306.565 244.704H298.513L296.929 255H291.187L298.645 211.176H306.631L314.089 255ZM302.407 220.416L299.305 239.622H305.773L302.671 220.416H302.407Z" fill="white"/>
</svg>
