<svg width="40" height="40" viewBox="0 0 40 40" fill="none" xmlns="http://www.w3.org/2000/svg">
<circle cx="20" cy="20" r="18.5" fill="#3232F0" stroke="white" stroke-width="3"/>
<path d="M18.5 30C18.5 30.8284 19.1716 31.5 20 31.5C20.8284 31.5 21.5 30.8284 21.5 30H18.5ZM21.0607 8.93934C20.4749 8.35355 19.5251 8.35355 18.9393 8.93934L9.3934 18.4853C8.80761 19.0711 8.80761 20.0208 9.3934 20.6066C9.97919 21.1924 10.9289 21.1924 11.5147 20.6066L20 12.1213L28.4853 20.6066C29.0711 21.1924 30.0208 21.1924 30.6066 20.6066C31.1924 20.0208 31.1924 19.0711 30.6066 18.4853L21.0607 8.93934ZM21.5 30V10H18.5V30H21.5Z" fill="white"/>
</svg>
