<?xml version="1.0" standalone="no"?>
<!DOCTYPE svg PUBLIC "-//W3C//DTD SVG 1.1//EN" "http://www.w3.org/Graphics/SVG/1.1/DTD/svg11.dtd" >
<svg xmlns="http://www.w3.org/2000/svg">
<defs>
  <font id="icons" horiz-adv-x="2260.8695652173915">
    <font-face font-family="icons"
      units-per-em="1000" ascent="1000"
      descent="0" />
    <missing-glyph horiz-adv-x="0" />
    <glyph glyph-name="arrow-nav"
      unicode="&#xF101;"
      horiz-adv-x="1074" d="M574 0C557.2 0 540.4 6.4 527.6 19.2C502 44.8000000000001 502 86.2000000000001 527.6 111.8000000000001L850.4000000000001 434.6000000000002H65.4C29.4 434.4 0 463.8 0 500C0 536.2 29.4 565.4 65.4 565.4H850.4L527.8 888.2C502.1999999999999 913.8 502.1999999999999 955.2 527.8 980.8C553.4 1006.4 594.8 1006.4 620.4 980.8L1054.8 546.4000000000001C1055.3999999999999 546 1055.8 545.4000000000001 1056.2 545C1061.8 539 1066 532.4000000000001 1069 525.2V525.2L1069 525.2C1072.2 517.6 1074 509.2 1074 500.4C1074 500.4 1074 500.4 1074 500.4C1074 500.4 1074 500.2 1074 500.2C1074 500.2 1074 500.0000000000001 1074 500.0000000000001C1074 500.0000000000001 1074 499.8000000000001 1074 499.8000000000001C1074 499.8000000000001 1074 499.8000000000001 1074 499.6000000000001C1074 499.6000000000001 1074 499.6000000000001 1074 499.6000000000001C1074 490.8000000000001 1072.2 482.4000000000001 1069 474.8000000000001L1069 474.8000000000001V474.8000000000001C1066 467.6 1061.8 461.0000000000001 1056.2 455.0000000000001C1055.6000000000001 454.6000000000001 1055.2 454.0000000000001 1054.8 453.6000000000001L620.4 19.2C607.6 6.4 590.8 0 574 0z" />
    <glyph glyph-name="arrow-nav-1"
      unicode="&#x61;&#x72;&#x72;&#x6F;&#x77;&#x2D;&#x6E;&#x61;&#x76;"
      horiz-adv-x="1074" d="M574 0C557.2 0 540.4 6.4 527.6 19.2C502 44.8000000000001 502 86.2000000000001 527.6 111.8000000000001L850.4000000000001 434.6000000000002H65.4C29.4 434.4 0 463.8 0 500C0 536.2 29.4 565.4 65.4 565.4H850.4L527.8 888.2C502.1999999999999 913.8 502.1999999999999 955.2 527.8 980.8C553.4 1006.4 594.8 1006.4 620.4 980.8L1054.8 546.4000000000001C1055.3999999999999 546 1055.8 545.4000000000001 1056.2 545C1061.8 539 1066 532.4000000000001 1069 525.2V525.2L1069 525.2C1072.2 517.6 1074 509.2 1074 500.4C1074 500.4 1074 500.4 1074 500.4C1074 500.4 1074 500.2 1074 500.2C1074 500.2 1074 500.0000000000001 1074 500.0000000000001C1074 500.0000000000001 1074 499.8000000000001 1074 499.8000000000001C1074 499.8000000000001 1074 499.8000000000001 1074 499.6000000000001C1074 499.6000000000001 1074 499.6000000000001 1074 499.6000000000001C1074 490.8000000000001 1072.2 482.4000000000001 1069 474.8000000000001L1069 474.8000000000001V474.8000000000001C1066 467.6 1061.8 461.0000000000001 1056.2 455.0000000000001C1055.6000000000001 454.6000000000001 1055.2 454.0000000000001 1054.8 453.6000000000001L620.4 19.2C607.6 6.4 590.8 0 574 0z" />
    <glyph glyph-name="arrow"
      unicode="&#xF102;"
      horiz-adv-x="1000" d="M500 1000C225 1000 0 775 0 500S225 0 500 0S1000 225 1000 500S775 1000 500 1000zM500 75C265 75 75 265 75 500C75 735 265 925 500 925S925 735 925 500C925 265 735 75 500 75zM527.5 777.5C512.5 792.5 490.0000000000001 792.5 475 777.5L237.5 540C222.5 525 222.5 502.5000000000001 237.5 487.5C252.5 472.5 275 472.5 290 487.5L462.5 660V250C462.5 230 480 212.5 500 212.5S537.5 230 537.5 250V665L715 487.5C730.0000000000001 472.5 752.5 472.5 767.5000000000001 487.5C782.5000000000001 502.5000000000001 782.5000000000001 525 767.5000000000001 540L527.5 777.5z" />
    <glyph glyph-name="arrow-1"
      unicode="&#x61;&#x72;&#x72;&#x6F;&#x77;"
      horiz-adv-x="1000" d="M500 1000C225 1000 0 775 0 500S225 0 500 0S1000 225 1000 500S775 1000 500 1000zM500 75C265 75 75 265 75 500C75 735 265 925 500 925S925 735 925 500C925 265 735 75 500 75zM527.5 777.5C512.5 792.5 490.0000000000001 792.5 475 777.5L237.5 540C222.5 525 222.5 502.5000000000001 237.5 487.5C252.5 472.5 275 472.5 290 487.5L462.5 660V250C462.5 230 480 212.5 500 212.5S537.5 230 537.5 250V665L715 487.5C730.0000000000001 472.5 752.5 472.5 767.5000000000001 487.5C782.5000000000001 502.5000000000001 782.5000000000001 525 767.5000000000001 540L527.5 777.5z" />
    <glyph glyph-name="arrrow-down"
      unicode="&#xF103;"
      horiz-adv-x="1000" d="M890 515C865 540 825 540 800 515L560 275V875C560 910 530 940 500 940S440.0000000000001 910 440.0000000000001 875V275L200 515C175 540 135 540 110 515S85 450 110 425L455.0000000000001 80.0000000000001C455.0000000000001 80.0000000000001 455.0000000000001 80.0000000000001 455.0000000000001 80.0000000000001C460.0000000000001 75 465.0000000000001 70.0000000000001 475.0000000000001 70.0000000000001H475.0000000000001C480.0000000000001 65 490.0000000000001 65 500.0000000000001 65C500.0000000000001 65 500.0000000000001 65 500.0000000000001 65C500.0000000000001 65 500.0000000000001 65 500.0000000000001 65C500.0000000000001 65 500.0000000000001 65 500.0000000000001 65S500.0000000000001 65 500.0000000000001 65C500.0000000000001 65 500.0000000000001 65 500.0000000000001 65C500.0000000000001 65 500.0000000000001 65 500.0000000000001 65C510.0000000000001 65 515.0000000000001 65 525.0000000000001 70.0000000000001H525.0000000000001C530.0000000000001 75.0000000000002 540.0000000000001 75.0000000000002 545.0000000000001 80.0000000000001C545.0000000000001 80.0000000000001 545.0000000000001 80.0000000000001 545.0000000000001 80.0000000000001L890.0000000000002 425.0000000000001C915 450 915 490.0000000000001 890 515z" />
    <glyph glyph-name="arrrow-down-1"
      unicode="&#x61;&#x72;&#x72;&#x72;&#x6F;&#x77;&#x2D;&#x64;&#x6F;&#x77;&#x6E;"
      horiz-adv-x="1000" d="M890 515C865 540 825 540 800 515L560 275V875C560 910 530 940 500 940S440.0000000000001 910 440.0000000000001 875V275L200 515C175 540 135 540 110 515S85 450 110 425L455.0000000000001 80.0000000000001C455.0000000000001 80.0000000000001 455.0000000000001 80.0000000000001 455.0000000000001 80.0000000000001C460.0000000000001 75 465.0000000000001 70.0000000000001 475.0000000000001 70.0000000000001H475.0000000000001C480.0000000000001 65 490.0000000000001 65 500.0000000000001 65C500.0000000000001 65 500.0000000000001 65 500.0000000000001 65C500.0000000000001 65 500.0000000000001 65 500.0000000000001 65C500.0000000000001 65 500.0000000000001 65 500.0000000000001 65S500.0000000000001 65 500.0000000000001 65C500.0000000000001 65 500.0000000000001 65 500.0000000000001 65C500.0000000000001 65 500.0000000000001 65 500.0000000000001 65C510.0000000000001 65 515.0000000000001 65 525.0000000000001 70.0000000000001H525.0000000000001C530.0000000000001 75.0000000000002 540.0000000000001 75.0000000000002 545.0000000000001 80.0000000000001C545.0000000000001 80.0000000000001 545.0000000000001 80.0000000000001 545.0000000000001 80.0000000000001L890.0000000000002 425.0000000000001C915 450 915 490.0000000000001 890 515z" />
    <glyph glyph-name="arrrow-right"
      unicode="&#xF104;"
      horiz-adv-x="1000" d="M935 525L935 525C929.9999999999998 530 929.9999999999998 540 925 545L925 545L575 890C550 915 509.9999999999999 915 484.9999999999999 890S459.9999999999999 825 484.9999999999999 800L725 560H125C90 560 60 530 60 494.9999999999999S90 429.9999999999999 125 429.9999999999999H725L484.9999999999999 200C459.9999999999999 175 459.9999999999999 135 484.9999999999999 110C494.9999999999999 100 515 90 530 90C545 90 560 95.0000000000001 575 110L919.9999999999998 455L919.9999999999998 455C925 460 929.9999999999998 465 929.9999999999998 475L929.9999999999998 475C935 480 935 490.0000000000001 935 500L935 500L935 500L935 500L935 500L935 500L935 500C935 509.9999999999999 935 515 935 525z" />
    <glyph glyph-name="arrrow-right-1"
      unicode="&#x61;&#x72;&#x72;&#x72;&#x6F;&#x77;&#x2D;&#x72;&#x69;&#x67;&#x68;&#x74;"
      horiz-adv-x="1000" d="M935 525L935 525C929.9999999999998 530 929.9999999999998 540 925 545L925 545L575 890C550 915 509.9999999999999 915 484.9999999999999 890S459.9999999999999 825 484.9999999999999 800L725 560H125C90 560 60 530 60 494.9999999999999S90 429.9999999999999 125 429.9999999999999H725L484.9999999999999 200C459.9999999999999 175 459.9999999999999 135 484.9999999999999 110C494.9999999999999 100 515 90 530 90C545 90 560 95.0000000000001 575 110L919.9999999999998 455L919.9999999999998 455C925 460 929.9999999999998 465 929.9999999999998 475L929.9999999999998 475C935 480 935 490.0000000000001 935 500L935 500L935 500L935 500L935 500L935 500L935 500C935 509.9999999999999 935 515 935 525z" />
    <glyph glyph-name="burger-arrow"
      unicode="&#xF105;"
      horiz-adv-x="1000" d="M517.5 262.5C509.9999999999999 262.5 502.4999999999999 265 495 272.5C482.5 285 482.5 305 495 317.5L650 472.5H275C257.5 472.5 245.0000000000001 487.5 245.0000000000001 502.4999999999999S260 532.5 275 532.5H650L495 687.4999999999999C482.5 699.9999999999999 482.5 720 495 732.5C507.5 745 527.5 745 540 732.5L747.5 524.9999999999999C747.5 524.9999999999999 747.5 524.9999999999999 747.5 524.9999999999999C750.0000000000001 522.4999999999999 752.5 520 752.5 515V515L752.5 515C755.0000000000001 512.4999999999999 755.0000000000001 507.4999999999999 755.0000000000001 502.4999999999999C755.0000000000001 502.4999999999999 755.0000000000001 502.4999999999999 755.0000000000001 502.4999999999999C755.0000000000001 502.4999999999999 755.0000000000001 502.4999999999999 755.0000000000001 502.4999999999999C755.0000000000001 502.4999999999999 755.0000000000001 502.4999999999999 755.0000000000001 502.4999999999999S755.0000000000001 502.4999999999999 755.0000000000001 502.4999999999999C755.0000000000001 502.4999999999999 755.0000000000001 502.4999999999999 755.0000000000001 502.4999999999999C755.0000000000001 502.4999999999999 755.0000000000001 502.4999999999999 755.0000000000001 502.4999999999999C755.0000000000001 497.4999999999999 755.0000000000001 494.9999999999999 752.5 489.9999999999999L752.5 489.9999999999999V489.9999999999999C750 487.4999999999999 750 482.4999999999999 747.5 480C747.5 480 747.5 480 747.5 480L540 272.5C532.5 265 525 262.5 517.5 262.5z" />
    <glyph glyph-name="burger-arrow-1"
      unicode="&#x62;&#x75;&#x72;&#x67;&#x65;&#x72;&#x2D;&#x61;&#x72;&#x72;&#x6F;&#x77;"
      horiz-adv-x="1000" d="M517.5 262.5C509.9999999999999 262.5 502.4999999999999 265 495 272.5C482.5 285 482.5 305 495 317.5L650 472.5H275C257.5 472.5 245.0000000000001 487.5 245.0000000000001 502.4999999999999S260 532.5 275 532.5H650L495 687.4999999999999C482.5 699.9999999999999 482.5 720 495 732.5C507.5 745 527.5 745 540 732.5L747.5 524.9999999999999C747.5 524.9999999999999 747.5 524.9999999999999 747.5 524.9999999999999C750.0000000000001 522.4999999999999 752.5 520 752.5 515V515L752.5 515C755.0000000000001 512.4999999999999 755.0000000000001 507.4999999999999 755.0000000000001 502.4999999999999C755.0000000000001 502.4999999999999 755.0000000000001 502.4999999999999 755.0000000000001 502.4999999999999C755.0000000000001 502.4999999999999 755.0000000000001 502.4999999999999 755.0000000000001 502.4999999999999C755.0000000000001 502.4999999999999 755.0000000000001 502.4999999999999 755.0000000000001 502.4999999999999S755.0000000000001 502.4999999999999 755.0000000000001 502.4999999999999C755.0000000000001 502.4999999999999 755.0000000000001 502.4999999999999 755.0000000000001 502.4999999999999C755.0000000000001 502.4999999999999 755.0000000000001 502.4999999999999 755.0000000000001 502.4999999999999C755.0000000000001 497.4999999999999 755.0000000000001 494.9999999999999 752.5 489.9999999999999L752.5 489.9999999999999V489.9999999999999C750 487.4999999999999 750 482.4999999999999 747.5 480C747.5 480 747.5 480 747.5 480L540 272.5C532.5 265 525 262.5 517.5 262.5z" />
    <glyph glyph-name="burger"
      unicode="&#xF106;"
      horiz-adv-x="1307.6923076923076" d="M70.0534615384615 990.3846153846154H1237.638846153846A70.0534615384615 70.0534615384615 0 0 0 1307.6923076923076 920.3311538461538V920.3311538461538A70.0534615384615 70.0534615384615 0 0 0 1237.638846153846 850.2776923076923H70.0534615384616A70.0534615384615 70.0534615384615 0 0 0 0 920.3311538461538V920.3311538461538A70.0534615384615 70.0534615384615 0 0 0 70.0534615384616 990.3846153846154zM70.0534615384615 570.0884615384616H1237.638846153846A70.0534615384615 70.0534615384615 0 0 0 1307.6923076923076 500.0350000000001V500.0350000000001A70.0534615384615 70.0534615384615 0 0 0 1237.638846153846 429.9815384615385H70.0534615384616A70.0534615384615 70.0534615384615 0 0 0 0 500.0350000000001V500.0350000000001A70.0534615384615 70.0534615384615 0 0 0 70.0534615384616 570.0884615384616zM70.0534615384615 149.7538461538462H1237.638846153846A70.0534615384615 70.0534615384615 0 0 0 1307.6923076923076 79.7003846153846V79.7003846153846A70.0534615384615 70.0534615384615 0 0 0 1237.638846153846 9.646923076923H70.0534615384616A70.0534615384615 70.0534615384615 0 0 0 0 79.7003846153846V79.7003846153846A70.0534615384615 70.0534615384615 0 0 0 70.0534615384616 149.7538461538462z" />
    <glyph glyph-name="burger-1"
      unicode="&#x62;&#x75;&#x72;&#x67;&#x65;&#x72;"
      horiz-adv-x="1307.6923076923076" d="M70.0534615384615 990.3846153846154H1237.638846153846A70.0534615384615 70.0534615384615 0 0 0 1307.6923076923076 920.3311538461538V920.3311538461538A70.0534615384615 70.0534615384615 0 0 0 1237.638846153846 850.2776923076923H70.0534615384616A70.0534615384615 70.0534615384615 0 0 0 0 920.3311538461538V920.3311538461538A70.0534615384615 70.0534615384615 0 0 0 70.0534615384616 990.3846153846154zM70.0534615384615 570.0884615384616H1237.638846153846A70.0534615384615 70.0534615384615 0 0 0 1307.6923076923076 500.0350000000001V500.0350000000001A70.0534615384615 70.0534615384615 0 0 0 1237.638846153846 429.9815384615385H70.0534615384616A70.0534615384615 70.0534615384615 0 0 0 0 500.0350000000001V500.0350000000001A70.0534615384615 70.0534615384615 0 0 0 70.0534615384616 570.0884615384616zM70.0534615384615 149.7538461538462H1237.638846153846A70.0534615384615 70.0534615384615 0 0 0 1307.6923076923076 79.7003846153846V79.7003846153846A70.0534615384615 70.0534615384615 0 0 0 1237.638846153846 9.646923076923H70.0534615384616A70.0534615384615 70.0534615384615 0 0 0 0 79.7003846153846V79.7003846153846A70.0534615384615 70.0534615384615 0 0 0 70.0534615384616 149.7538461538462z" />
    <glyph glyph-name="check-mark"
      unicode="&#xF107;"
      horiz-adv-x="975.609756097561" d="M487.8048780487805 12.1951219512194C219.5121951219512 12.1951219512194 0 231.7073170731708 0 500S219.5121951219512 987.8048780487804 487.8048780487805 987.8048780487804C756.0975609756098 987.8048780487804 975.609756097561 768.2926829268292 975.609756097561 500S756.0975609756098 12.1951219512194 487.8048780487805 12.1951219512194zM487.8048780487805 939.0243902439024C246.3414634146342 939.0243902439024 48.7804878048781 741.4634146341464 48.7804878048781 500S246.3414634146342 60.9756097560976 487.8048780487805 60.9756097560976C729.2682926829268 60.9756097560976 926.829268292683 258.5365853658538 926.829268292683 500S729.2682926829268 939.0243902439024 487.8048780487805 939.0243902439024zM439.0243902439024 321.9512195121951C429.2682926829269 321.9512195121951 421.9512195121952 326.8292682926829 414.6341463414634 334.1463414634146L292.6829268292683 480.4878048780488C282.9268292682927 492.6829268292682 282.9268292682927 512.1951219512196 297.5609756097561 524.390243902439C309.7560975609756 534.1463414634146 329.2682926829268 534.1463414634146 341.4634146341464 519.5121951219512L439.0243902439024 402.4390243902439L658.5365853658536 712.1951219512196C668.2926829268292 726.8292682926829 687.8048780487804 729.2682926829268 700 719.5121951219512C714.6341463414634 709.7560975609756 717.0731707317073 690.2439024390244 707.3170731707318 678.0487804878048L463.4146341463415 336.5853658536586C458.5365853658537 329.2682926829268 448.780487804878 324.390243902439 439.0243902439024 321.9512195121951C439.0243902439024 321.9512195121951 439.0243902439024 321.9512195121951 439.0243902439024 321.9512195121951z" />
    <glyph glyph-name="check-mark-1"
      unicode="&#x63;&#x68;&#x65;&#x63;&#x6B;&#x2D;&#x6D;&#x61;&#x72;&#x6B;"
      horiz-adv-x="975.609756097561" d="M487.8048780487805 12.1951219512194C219.5121951219512 12.1951219512194 0 231.7073170731708 0 500S219.5121951219512 987.8048780487804 487.8048780487805 987.8048780487804C756.0975609756098 987.8048780487804 975.609756097561 768.2926829268292 975.609756097561 500S756.0975609756098 12.1951219512194 487.8048780487805 12.1951219512194zM487.8048780487805 939.0243902439024C246.3414634146342 939.0243902439024 48.7804878048781 741.4634146341464 48.7804878048781 500S246.3414634146342 60.9756097560976 487.8048780487805 60.9756097560976C729.2682926829268 60.9756097560976 926.829268292683 258.5365853658538 926.829268292683 500S729.2682926829268 939.0243902439024 487.8048780487805 939.0243902439024zM439.0243902439024 321.9512195121951C429.268292682927 321.9512195121951 421.9512195121952 326.8292682926829 414.6341463414634 334.1463414634146L292.6829268292683 480.4878048780488C282.9268292682927 492.6829268292682 282.9268292682927 512.1951219512196 297.5609756097561 524.390243902439C309.7560975609756 534.1463414634146 329.2682926829268 534.1463414634146 341.4634146341464 519.5121951219512L439.0243902439024 402.4390243902439L658.5365853658536 712.1951219512196C668.2926829268292 726.8292682926829 687.8048780487804 729.2682926829268 700 719.5121951219512C714.6341463414634 709.7560975609756 717.0731707317073 690.2439024390244 707.3170731707318 678.0487804878048L463.4146341463415 336.5853658536586C458.5365853658537 329.2682926829268 448.780487804878 324.390243902439 439.0243902439024 321.9512195121951C439.0243902439024 321.9512195121951 439.0243902439024 321.9512195121951 439.0243902439024 321.9512195121951z" />
    <glyph glyph-name="check"
      unicode="&#xF108;"
      horiz-adv-x="1000" d="M910 965L35 90C50 65 65 50 90 35L965 910C950 935 935 950 910 965zM965 90L90 965C65 950 50 935 35 910L915 29.9999999999999C935 50 950 65 965 90z" />
    <glyph glyph-name="check-1"
      unicode="&#x63;&#x68;&#x65;&#x63;&#x6B;"
      horiz-adv-x="1000" d="M910 965L35 90C50 65 65 50 90 35L965 910C950 935 935 950 910 965zM965 90L90 965C65 950 50 935 35 910L915 29.9999999999999C935 50 950 65 965 90z" />
    <glyph glyph-name="clock"
      unicode="&#xF109;"
      horiz-adv-x="1000.0000000000001" d="M446.6666666666667 833.3333333333335H471.6666666666667V800.0000000000001H446.6666666666667V833.3333333333335zM100 495.0000000000001H133.3333333333334V470.0000000000001H100V495.0000000000001zM436.6666666666667 166.6666666666668H461.6666666666667V133.3333333333334H436.6666666666667V166.6666666666668zM191.5745 251.3495000000002L215.1445 274.9195000000002L232.822 257.2420000000002L209.252 233.6720000000002L191.5745 251.3495000000002zM191.5778333333333 725.0838333333334L209.2553333333333 742.7613333333334L232.8253333333333 719.1913333333334L215.1478333333333 701.5138333333334L191.5778333333333 725.0838333333334zM583.3333333333334 375.0000000000001L470 488.3333333333334L470 683.3333333333335L446.6666666666667 683.3333333333335L446.6666666666667 495.0000000000001L258.3333333333334 495.0000000000001L258.3333333333334 470.0000000000001L453.3333333333334 470.0000000000001L566.6666666666667 358.3333333333334zM411.6666666666667 115C338.3333333333333 123.3333333333334 266.6666666666667 153.3333333333334 210 201.6666666666668S111.6666666666667 313.3333333333335 91.6666666666667 386.6666666666668C71.6666666666667 458.3333333333334 73.3333333333333 535.0000000000001 98.3333333333333 605.0000000000002S166.6666666666667 736.6666666666669 226.6666666666667 781.6666666666669C286.6666666666667 825.0000000000001 358.3333333333334 850.0000000000001 433.3333333333334 853.3333333333335C508.3333333333334 856.6666666666667 581.6666666666666 838.3333333333335 645.0000000000001 798.3333333333334C708.3333333333334 760 758.3333333333334 701.6666666666667 790.0000000000001 633.3333333333335L816.6666666666669 645C783.3333333333335 718.3333333333335 730.0000000000001 780.0000000000001 661.6666666666667 821.6666666666667C591.6666666666667 866.6666666666667 511.6666666666667 886.6666666666667 431.6666666666667 883.3333333333335C351.6666666666667 880.0000000000001 275 851.6666666666667 210 803.3333333333335C145 755.0000000000001 98.3333333333333 688.3333333333334 71.6666666666666 613.3333333333334C45 536.6666666666667 43.3333333333333 455 65 378.3333333333334C86.6666666666666 301.6666666666667 130 231.6666666666667 191.6666666666666 180C253.3333333333333 128.3333333333333 328.3333333333333 95 408.3333333333333 86.6666666666666C488.3333333333333 78.3333333333333 568.3333333333333 93.3333333333333 640 131.6666666666668L626.6666666666667 156.6666666666668C560.0000000000001 121.6666666666666 485.0000000000001 106.6666666666667 411.6666666666667 115zM926.6666666666669 393.3333333333334C938.3333333333334 415 946.6666666666669 440 946.6666666666669 466.6666666666667C946.6666666666669 546.6666666666667 881.6666666666669 613.3333333333335 800 613.3333333333335S653.3333333333334 548.3333333333335 653.3333333333334 466.6666666666667C653.3333333333334 440 661.6666666666667 415 673.3333333333335 393.3333333333334C640.0000000000001 361.6666666666668 620.0000000000001 315 620.0000000000001 266.6666666666668C620.0000000000001 168.3333333333334 700 86.6666666666667 800 86.6666666666667S980 168.3333333333334 980 266.6666666666668C980 316.6666666666668 958.3333333333334 361.6666666666668 926.6666666666669 393.3333333333334zM680 466.6666666666667C680 533.3333333333335 735 586.6666666666667 800 586.6666666666667S920.0000000000002 531.6666666666667 920.0000000000002 466.6666666666667C920.0000000000002 446.6666666666668 915.0000000000002 426.6666666666668 905.0000000000002 410.0000000000001C875.0000000000002 431.6666666666668 838.3333333333335 445.0000000000001 798.3333333333335 445.0000000000001S721.6666666666667 431.6666666666669 691.6666666666669 410.0000000000001C685.0000000000001 426.6666666666668 680 446.6666666666668 680 466.6666666666667zM800 111.6666666666667C715 111.6666666666667 646.6666666666666 180.0000000000001 646.6666666666666 265.0000000000001S715 418.3333333333336 800 418.3333333333336S953.3333333333334 350.0000000000003 953.3333333333334 265.0000000000001S885.0000000000001 111.6666666666667 800 111.6666666666667zM813.3333333333334 358.3333333333334L786.6666666666667 358.3333333333334L786.6666666666667 236.6666666666668L900.0000000000001 236.6666666666668L900.0000000000001 261.6666666666668L813.3333333333334 261.6666666666668z" />
    <glyph glyph-name="clock-1"
      unicode="&#x63;&#x6C;&#x6F;&#x63;&#x6B;"
      horiz-adv-x="1000.0000000000001" d="M446.6666666666667 833.3333333333335H471.6666666666667V800.0000000000001H446.6666666666667V833.3333333333335zM100 495.0000000000001H133.3333333333334V470.0000000000001H100V495.0000000000001zM436.6666666666667 166.6666666666668H461.6666666666667V133.3333333333334H436.6666666666667V166.6666666666668zM191.5745 251.3495000000002L215.1445 274.9195000000002L232.822 257.2420000000002L209.252 233.6720000000002L191.5745 251.3495000000002zM191.5778333333333 725.0838333333334L209.2553333333333 742.7613333333334L232.8253333333333 719.1913333333334L215.1478333333333 701.5138333333334L191.5778333333333 725.0838333333334zM583.3333333333334 375.0000000000001L470 488.3333333333334L470 683.3333333333335L446.6666666666667 683.3333333333335L446.6666666666667 495.0000000000001L258.3333333333335 495.0000000000001L258.3333333333335 470.0000000000001L453.3333333333334 470.0000000000001L566.6666666666667 358.3333333333335zM411.6666666666667 115C338.3333333333333 123.3333333333334 266.6666666666667 153.3333333333334 210 201.6666666666668S111.6666666666667 313.3333333333335 91.6666666666667 386.6666666666668C71.6666666666667 458.3333333333334 73.3333333333333 535.0000000000001 98.3333333333333 605.0000000000002S166.6666666666667 736.6666666666669 226.6666666666667 781.6666666666669C286.6666666666667 825.0000000000001 358.3333333333335 850.0000000000001 433.3333333333335 853.3333333333335C508.3333333333334 856.6666666666667 581.6666666666666 838.3333333333335 645.0000000000001 798.3333333333334C708.3333333333334 760 758.3333333333334 701.6666666666667 790.0000000000001 633.3333333333335L816.6666666666669 645C783.3333333333335 718.3333333333335 730.0000000000001 780.0000000000001 661.6666666666667 821.6666666666667C591.6666666666667 866.6666666666667 511.6666666666667 886.6666666666667 431.6666666666667 883.3333333333335C351.6666666666667 880.0000000000001 275 851.6666666666667 210 803.3333333333335C145 755.0000000000001 98.3333333333333 688.3333333333334 71.6666666666666 613.3333333333334C45 536.6666666666667 43.3333333333333 455 65 378.3333333333335C86.6666666666666 301.6666666666667 130 231.6666666666667 191.6666666666666 180C253.3333333333333 128.3333333333333 328.3333333333333 95 408.3333333333333 86.6666666666666C488.3333333333333 78.3333333333333 568.3333333333333 93.3333333333333 640 131.6666666666668L626.6666666666667 156.6666666666668C560.0000000000001 121.6666666666666 485.0000000000001 106.6666666666667 411.6666666666667 115zM926.6666666666669 393.3333333333335C938.3333333333334 415 946.6666666666669 440 946.6666666666669 466.6666666666667C946.6666666666669 546.6666666666667 881.6666666666669 613.3333333333335 800 613.3333333333335S653.3333333333334 548.3333333333335 653.3333333333334 466.6666666666667C653.3333333333334 440 661.6666666666667 415 673.3333333333335 393.3333333333335C640.0000000000001 361.6666666666668 620.0000000000001 315 620.0000000000001 266.6666666666668C620.0000000000001 168.3333333333334 700 86.6666666666667 800 86.6666666666667S980 168.3333333333334 980 266.6666666666668C980 316.6666666666668 958.3333333333334 361.6666666666668 926.6666666666669 393.3333333333335zM680 466.6666666666667C680 533.3333333333335 735 586.6666666666667 800 586.6666666666667S920.0000000000002 531.6666666666667 920.0000000000002 466.6666666666667C920.0000000000002 446.6666666666668 915.0000000000002 426.6666666666668 905.0000000000002 410.0000000000001C875.0000000000002 431.6666666666668 838.3333333333335 445.0000000000001 798.3333333333335 445.0000000000001S721.6666666666667 431.6666666666669 691.6666666666669 410.0000000000001C685.0000000000001 426.6666666666668 680 446.6666666666668 680 466.6666666666667zM800 111.6666666666667C715 111.6666666666667 646.6666666666666 180.0000000000001 646.6666666666666 265.0000000000001S715 418.3333333333336 800 418.3333333333336S953.3333333333334 350.0000000000003 953.3333333333334 265.0000000000001S885.0000000000001 111.6666666666667 800 111.6666666666667zM813.3333333333334 358.3333333333335L786.6666666666667 358.3333333333335L786.6666666666667 236.6666666666668L900.0000000000001 236.6666666666668L900.0000000000001 261.6666666666668L813.3333333333334 261.6666666666668z" />
    <glyph glyph-name="close"
      unicode="&#xF10A;"
      horiz-adv-x="1000" d="M502.092050209205 560.6694560669456L941.4225941422594 1000L1000 941.4225941422594L560.6694560669456 497.907949790795L1000 58.5774058577406L941.4225941422594 0L502.092050209205 439.3305439330544L58.5774058577406 0L0 58.5774058577406L439.3305439330544 497.907949790795L0 941.4225941422594L58.5774058577406 1000L502.092050209205 560.6694560669456z" />
    <glyph glyph-name="close-1"
      unicode="&#x63;&#x6C;&#x6F;&#x73;&#x65;"
      horiz-adv-x="1000" d="M502.092050209205 560.6694560669456L941.4225941422594 1000L1000 941.4225941422594L560.6694560669456 497.907949790795L1000 58.5774058577406L941.4225941422594 0L502.092050209205 439.3305439330544L58.5774058577406 0L0 58.5774058577406L439.3305439330544 497.907949790795L0 941.4225941422594L58.5774058577406 1000L502.092050209205 560.6694560669456z" />
    <glyph glyph-name="eye"
      unicode="&#xF10B;"
      horiz-adv-x="1031.25" d="M975 487.5C975 490.6250000000001 975 490.6250000000001 978.125 493.75C978.125 496.8750000000001 978.125 496.8750000000001 978.125 500C978.125 503.125 978.125 503.125 978.125 506.25C978.125 509.3749999999999 978.125 509.3749999999999 975 512.5C975 515.625 971.8749999999998 515.625 971.8749999999998 518.75C971.8749999999998 518.75 971.8749999999998 521.875 968.7499999999998 521.875C887.4999999999999 618.7499999999999 734.3749999999999 721.875 549.9999999999998 731.25C384.3749999999998 740.625 221.8749999999998 668.75 71.8749999999998 521.875C71.8749999999998 521.875 71.8749999999998 521.875 71.8749999999998 521.875S71.8749999999998 521.875 71.8749999999998 521.875C71.8749999999998 521.875 68.7499999999998 518.75 68.7499999999998 515.625C68.7499999999998 512.5 65.6249999999998 512.5 65.6249999999998 509.375C65.6249999999998 506.2500000000001 65.6249999999998 506.2500000000001 65.6249999999998 503.1250000000001C65.6249999999998 500.0000000000001 65.6249999999998 500.0000000000001 65.6249999999998 496.8750000000001S65.6249999999998 493.75 65.6249999999998 490.6250000000001C65.6249999999998 487.5 65.6249999999998 487.5 65.6249999999998 484.3750000000001C65.6249999999998 481.2500000000001 68.7499999999998 481.2500000000001 68.7499999999998 478.1250000000001C68.7499999999998 475.0000000000001 71.8749999999998 475.0000000000001 71.8749999999998 471.8750000000001C71.8749999999998 471.8750000000001 71.8749999999998 471.8750000000001 71.8749999999998 471.8750000000001S71.8749999999998 471.8750000000001 71.8749999999998 471.8750000000001C215.6249999999998 334.3750000000001 365.6249999999999 262.5000000000003 524.9999999999998 262.5000000000003C534.3749999999998 262.5000000000003 543.7499999999999 262.5000000000003 549.9999999999998 262.5000000000003C734.3749999999998 271.8750000000003 887.4999999999999 378.1250000000001 968.7499999999998 471.8750000000001C968.7499999999998 471.8750000000001 968.7499999999998 475.0000000000002 971.8749999999998 475.0000000000002C971.875 484.375 975 487.5 975 487.5zM384.375 353.125C300.0000000000001 378.125 221.875 428.125 140.625 500C218.75 571.875 300.0000000000001 621.875 384.375 646.875C343.75 609.375 318.7500000000001 559.375 318.7500000000001 500C321.875 440.625 346.875 390.625 384.375 353.125zM521.875 418.75C475 418.75 440.625 456.2499999999999 440.625 500C440.625 546.875 478.1249999999999 581.25 521.875 581.25C568.75 581.25 603.125 543.75 603.125 500C603.125 453.125 565.625 418.75 521.875 418.75zM650 346.875C693.75 384.375 718.75 437.5 718.75 500.0000000000001C718.75 559.375 690.625 615.6250000000001 650 653.125C756.25 625 843.75 562.5 903.125 500.0000000000001C846.875 437.5 756.25 378.125 650 346.875z" />
    <glyph glyph-name="eye-1"
      unicode="&#x65;&#x79;&#x65;"
      horiz-adv-x="1031.25" d="M975 487.5C975 490.6250000000001 975 490.6250000000001 978.125 493.75C978.125 496.8750000000001 978.125 496.8750000000001 978.125 500C978.125 503.125 978.125 503.125 978.125 506.25C978.125 509.3749999999999 978.125 509.3749999999999 975 512.5C975 515.625 971.8749999999998 515.625 971.8749999999998 518.75C971.8749999999998 518.75 971.8749999999998 521.875 968.7499999999998 521.875C887.4999999999999 618.7499999999999 734.3749999999999 721.875 549.9999999999998 731.25C384.3749999999998 740.625 221.8749999999998 668.75 71.8749999999998 521.875C71.8749999999998 521.875 71.8749999999998 521.875 71.8749999999998 521.875S71.8749999999998 521.875 71.8749999999998 521.875C71.8749999999998 521.875 68.7499999999998 518.75 68.7499999999998 515.625C68.7499999999998 512.5 65.6249999999998 512.5 65.6249999999998 509.375C65.6249999999998 506.2500000000001 65.6249999999998 506.2500000000001 65.6249999999998 503.1250000000001C65.6249999999998 500.0000000000001 65.6249999999998 500.0000000000001 65.6249999999998 496.8750000000001S65.6249999999998 493.75 65.6249999999998 490.6250000000001C65.6249999999998 487.5 65.6249999999998 487.5 65.6249999999998 484.3750000000001C65.6249999999998 481.2500000000001 68.7499999999998 481.2500000000001 68.7499999999998 478.1250000000001C68.7499999999998 475.0000000000001 71.8749999999998 475.0000000000001 71.8749999999998 471.8750000000001C71.8749999999998 471.8750000000001 71.8749999999998 471.8750000000001 71.8749999999998 471.8750000000001S71.8749999999998 471.8750000000001 71.8749999999998 471.8750000000001C215.6249999999998 334.3750000000001 365.6249999999999 262.5000000000003 524.9999999999998 262.5000000000003C534.3749999999998 262.5000000000003 543.7499999999999 262.5000000000003 549.9999999999998 262.5000000000003C734.3749999999998 271.8750000000003 887.4999999999999 378.1250000000001 968.7499999999998 471.8750000000001C968.7499999999998 471.8750000000001 968.7499999999998 475.0000000000002 971.8749999999998 475.0000000000002C971.875 484.375 975 487.5 975 487.5zM384.375 353.125C300.0000000000001 378.125 221.875 428.125 140.625 500C218.75 571.875 300.0000000000001 621.875 384.375 646.875C343.75 609.375 318.7500000000001 559.375 318.7500000000001 500C321.875 440.625 346.875 390.625 384.375 353.125zM521.875 418.75C475 418.75 440.625 456.2499999999999 440.625 500C440.625 546.875 478.1249999999999 581.25 521.875 581.25C568.75 581.25 603.125 543.75 603.125 500C603.125 453.125 565.625 418.75 521.875 418.75zM650 346.875C693.75 384.375 718.75 437.5 718.75 500.0000000000001C718.75 559.375 690.625 615.6250000000001 650 653.125C756.25 625 843.75 562.5 903.125 500.0000000000001C846.875 437.5 756.25 378.125 650 346.875z" />
    <glyph glyph-name="glass"
      unicode="&#xF10C;"
      horiz-adv-x="1000" d="M753.1235294117647 330.6529411764707C804.4117647058823 398.6117647058824 832.9058823529411 477.8941176470588 832.9058823529411 568.5058823529412C832.9058823529411 789.3679411764706 656.25 970.5882352941176 434.0058823529412 970.5882352941176C211.7647058823529 970.5882352941176 29.4117647058824 789.3679411764706 29.4117647058824 568.5058823529412C29.4117647058824 347.6441176470589 211.7647058823529 166.4235294117648 434.0058823529412 166.4235294117648C525.185294117647 166.4235294117648 610.6617647058823 194.7382352941177 673.3470588235293 245.7058823529412L844.3029411764705 75.8117647058824C855.7 64.4852941176471 872.7941176470588 58.8235294117648 884.1911764705882 58.8235294117648C895.5882352941176 58.8235294117648 912.6823529411764 64.4852941176471 924.079411764706 75.8117647058824C946.8764705882352 98.464705882353 946.8764705882352 132.4441176470589 924.079411764706 155.0970588235294L753.1235294117647 330.6529411764707zM434.0058823529412 285.35C274.4485294117647 285.35 143.3823529411765 409.9382352941177 143.3823529411765 568.5058823529412C143.3823529411765 727.0735294117646 274.4485294117647 857.3255882352942 434.0058823529412 857.3255882352942C593.5647058823529 857.3255882352942 724.6323529411765 727.0735294117646 724.6323529411765 568.5058823529412C724.6323529411765 409.9382352941177 593.5647058823529 285.35 434.0058823529412 285.35z" />
    <glyph glyph-name="glass-1"
      unicode="&#x67;&#x6C;&#x61;&#x73;&#x73;"
      horiz-adv-x="1000" d="M753.1235294117647 330.6529411764707C804.4117647058823 398.6117647058824 832.9058823529411 477.8941176470588 832.9058823529411 568.5058823529412C832.9058823529411 789.3679411764706 656.25 970.5882352941176 434.0058823529413 970.5882352941176C211.7647058823529 970.5882352941176 29.4117647058824 789.3679411764706 29.4117647058824 568.5058823529412C29.4117647058824 347.6441176470589 211.7647058823529 166.4235294117648 434.0058823529413 166.4235294117648C525.185294117647 166.4235294117648 610.6617647058823 194.7382352941177 673.3470588235293 245.7058823529412L844.3029411764705 75.8117647058824C855.7 64.4852941176471 872.7941176470588 58.8235294117648 884.1911764705882 58.8235294117648C895.5882352941176 58.8235294117648 912.6823529411764 64.4852941176471 924.079411764706 75.8117647058824C946.8764705882352 98.464705882353 946.8764705882352 132.4441176470589 924.079411764706 155.0970588235294L753.1235294117647 330.6529411764707zM434.0058823529413 285.35C274.4485294117647 285.35 143.3823529411765 409.9382352941177 143.3823529411765 568.5058823529412C143.3823529411765 727.0735294117646 274.4485294117647 857.3255882352942 434.0058823529413 857.3255882352942C593.5647058823529 857.3255882352942 724.6323529411765 727.0735294117646 724.6323529411765 568.5058823529412C724.6323529411765 409.9382352941177 593.5647058823529 285.35 434.0058823529413 285.35z" />
    <glyph glyph-name="long-arrow"
      unicode="&#xF10D;"
      horiz-adv-x="2260.8695652173915" d="M2200 552.1739130434783L1795.6521739130435 956.5217391304348C1769.5652173913043 982.6086956521738 1730.4347826086955 982.6086956521738 1704.3478260869563 956.5217391304348S1678.2608695652173 891.304347826087 1704.3478260869563 865.2173913043478L1999.9999999999995 569.5652173913043H43.4782608695652V443.4782608695652H2004.3478260869567L1708.6956521739132 147.8260869565216C1682.608695652174 121.7391304347825 1682.608695652174 82.6086956521739 1708.6956521739132 56.5217391304346C1734.7826086956525 30.4347826086954 1773.9130434782612 30.4347826086954 1800.0000000000002 56.5217391304346L2204.3478260869565 460.8695652173911C2226.0869565217395 486.9565217391304 2226.0869565217395 526.0869565217391 2200 552.1739130434783z" />
    <glyph glyph-name="long-arrow-1"
      unicode="&#x6C;&#x6F;&#x6E;&#x67;&#x2D;&#x61;&#x72;&#x72;&#x6F;&#x77;"
      horiz-adv-x="2260.8695652173915" d="M2200 552.1739130434783L1795.6521739130435 956.5217391304348C1769.5652173913043 982.6086956521738 1730.4347826086955 982.6086956521738 1704.3478260869563 956.5217391304348S1678.2608695652173 891.304347826087 1704.3478260869563 865.2173913043478L1999.9999999999995 569.5652173913043H43.4782608695652V443.4782608695652H2004.3478260869567L1708.6956521739132 147.8260869565216C1682.608695652174 121.7391304347825 1682.608695652174 82.6086956521739 1708.6956521739132 56.5217391304346C1734.7826086956525 30.4347826086954 1773.9130434782612 30.4347826086954 1800.0000000000002 56.5217391304346L2204.3478260869565 460.8695652173911C2226.0869565217395 486.9565217391304 2226.0869565217395 526.0869565217391 2200 552.1739130434783z" />
    <glyph glyph-name="mail"
      unicode="&#xF10E;"
      horiz-adv-x="1000.0000000000001" d="M933.3333333333334 820.0000000000001H75C40 820.0000000000001 11.6666666666667 791.6666666666667 11.6666666666667 756.6666666666667V250.0000000000001C11.6666666666667 215 40 186.6666666666668 75 186.6666666666668H933.3333333333334C968.3333333333334 186.6666666666668 996.6666666666669 215.0000000000001 996.6666666666669 250.0000000000001V758.3333333333335C996.6666666666669 793.3333333333335 968.3333333333334 820.0000000000001 933.3333333333334 820.0000000000001zM966.6666666666669 775.0000000000001C970.0000000000002 770.0000000000001 971.6666666666669 763.3333333333335 971.6666666666669 758.3333333333335V313.3333333333334L710.0000000000001 575L966.6666666666669 775.0000000000001zM933.3333333333334 795.0000000000001C938.3333333333334 795.0000000000001 943.3333333333334 793.3333333333335 948.3333333333334 791.6666666666667L510.0000000000001 451.6666666666667C508.3333333333334 450.0000000000001 506.6666666666667 450.0000000000001 505.0000000000001 451.6666666666667L55 791.6666666666667C60 795.0000000000001 66.6666666666667 796.6666666666667 75 796.6666666666667H933.3333333333334zM40 771.6666666666667L300 575L36.6666666666667 313.3333333333334V758.3333333333335C36.6666666666667 763.3333333333335 38.3333333333333 766.6666666666667 40 771.6666666666667zM36.6666666666667 278.3333333333335L318.3333333333333 560.0000000000001L355 531.6666666666667L48.3333333333333 223.3333333333334C41.6666666666667 230 38.3333333333333 240 38.3333333333333 250.0000000000001V278.3333333333335zM71.6666666666667 213.3333333333334L376.6666666666668 516.6666666666667L490.0000000000001 430C495.0000000000001 426.6666666666667 501.6666666666667 423.3333333333334 508.3333333333334 423.3333333333334C515.0000000000001 423.3333333333334 521.6666666666667 425.0000000000001 526.6666666666667 430L630.0000000000001 510.0000000000001L930.0000000000002 210H75C73.3333333333333 211.6666666666668 73.3333333333333 213.3333333333334 71.6666666666667 213.3333333333334zM955 220.0000000000001L648.3333333333334 526.6666666666667L690 558.3333333333335L971.6666666666669 276.6666666666668V250.0000000000001C970.0000000000002 238.3333333333334 965 226.6666666666668 955 220.0000000000001z" />
    <glyph glyph-name="mail-1"
      unicode="&#x6D;&#x61;&#x69;&#x6C;"
      horiz-adv-x="1000.0000000000001" d="M933.3333333333334 820.0000000000001H75C40 820.0000000000001 11.6666666666667 791.6666666666667 11.6666666666667 756.6666666666667V250.0000000000001C11.6666666666667 215 40 186.6666666666668 75 186.6666666666668H933.3333333333334C968.3333333333334 186.6666666666668 996.6666666666669 215.0000000000001 996.6666666666669 250.0000000000001V758.3333333333335C996.6666666666669 793.3333333333335 968.3333333333334 820.0000000000001 933.3333333333334 820.0000000000001zM966.6666666666669 775.0000000000001C970.0000000000002 770.0000000000001 971.6666666666669 763.3333333333335 971.6666666666669 758.3333333333335V313.3333333333335L710.0000000000001 575L966.6666666666669 775.0000000000001zM933.3333333333334 795.0000000000001C938.3333333333334 795.0000000000001 943.3333333333334 793.3333333333335 948.3333333333334 791.6666666666667L510.0000000000001 451.6666666666667C508.3333333333334 450.0000000000001 506.6666666666667 450.0000000000001 505.0000000000001 451.6666666666667L55 791.6666666666667C60 795.0000000000001 66.6666666666667 796.6666666666667 75 796.6666666666667H933.3333333333334zM40 771.6666666666667L300 575L36.6666666666667 313.3333333333335V758.3333333333335C36.6666666666667 763.3333333333335 38.3333333333333 766.6666666666667 40 771.6666666666667zM36.6666666666667 278.3333333333335L318.3333333333333 560.0000000000001L355 531.6666666666667L48.3333333333333 223.3333333333334C41.6666666666667 230 38.3333333333333 240 38.3333333333333 250.0000000000001V278.3333333333335zM71.6666666666667 213.3333333333334L376.6666666666668 516.6666666666667L490.0000000000001 430C495.0000000000001 426.6666666666667 501.6666666666667 423.3333333333335 508.3333333333334 423.3333333333335C515.0000000000001 423.3333333333335 521.6666666666667 425.0000000000001 526.6666666666667 430L630.0000000000001 510.0000000000001L930.0000000000002 210H75C73.3333333333333 211.6666666666668 73.3333333333333 213.3333333333334 71.6666666666667 213.3333333333334zM955 220.0000000000001L648.3333333333334 526.6666666666667L690 558.3333333333335L971.6666666666669 276.6666666666668V250.0000000000001C970.0000000000002 238.3333333333334 965 226.6666666666668 955 220.0000000000001z" />
    <glyph glyph-name="menu-main"
      unicode="&#xF10F;"
      horiz-adv-x="812.5" d="M800 418.75L0 6.25V178.125L628.125 493.7499999999999V506.2499999999999L0 821.875V1000L800 584.375V418.75z" />
    <glyph glyph-name="menu-main-1"
      unicode="&#x6D;&#x65;&#x6E;&#x75;&#x2D;&#x6D;&#x61;&#x69;&#x6E;"
      horiz-adv-x="812.5" d="M800 418.75L0 6.25V178.125L628.125 493.7499999999999V506.2499999999999L0 821.875V1000L800 584.375V418.75z" />
    <glyph glyph-name="pagination-arrow"
      unicode="&#xF110;"
      horiz-adv-x="999.9999999999999" d="M518.4210526315788 249.9999999999999C510.5263157894736 249.9999999999999 502.6315789473683 252.6315789473685 494.7368421052631 260.5263157894736C481.578947368421 273.6842105263157 481.578947368421 294.7368421052631 494.7368421052631 307.8947368421052L657.8947368421052 471.0526315789473H263.1578947368421C244.7368421052632 471.0526315789473 231.5789473684211 486.8421052631578 231.5789473684211 502.6315789473683S247.3684210526316 534.2105263157894 263.1578947368421 534.2105263157894H657.8947368421052L494.7368421052631 697.3684210526314C481.578947368421 710.5263157894735 481.578947368421 731.5789473684208 494.7368421052631 744.736842105263C507.8947368421053 757.8947368421051 528.9473684210526 757.8947368421051 542.1052631578947 744.736842105263L760.5263157894736 526.315789473684C763.1578947368422 523.6842105263156 765.7894736842105 518.4210526315787 768.421052631579 515.7894736842104C771.0526315789474 513.1578947368419 771.0526315789474 507.8947368421051 771.0526315789474 502.6315789473683L771.0526315789474 502.6315789473683C771.0526315789474 502.6315789473683 771.0526315789474 502.6315789473683 771.0526315789474 502.6315789473683L771.0526315789474 502.6315789473683C771.0526315789474 502.6315789473683 771.0526315789474 502.6315789473683 771.0526315789474 502.6315789473683C771.0526315789474 502.6315789473683 771.0526315789474 502.6315789473683 771.0526315789474 502.6315789473683C771.0526315789474 502.6315789473683 771.0526315789474 502.6315789473683 771.0526315789474 502.6315789473683C771.0526315789474 502.6315789473683 771.0526315789474 502.6315789473683 771.0526315789474 502.6315789473683C771.0526315789474 497.3684210526314 771.0526315789474 494.736842105263 768.421052631579 489.4736842105262C765.7894736842105 486.8421052631577 765.7894736842105 481.5789473684209 760.5263157894736 478.9473684210525C760.5263157894736 478.9473684210525 760.5263157894736 478.9473684210525 760.5263157894736 478.9473684210525C760.5263157894736 478.9473684210525 760.5263157894736 478.9473684210525 760.5263157894736 478.9473684210525C760.5263157894736 478.9473684210525 760.5263157894736 478.9473684210525 760.5263157894736 478.9473684210525C760.5263157894736 478.9473684210525 760.5263157894736 478.9473684210525 760.5263157894736 478.9473684210525L760.5263157894736 478.9473684210525C760.5263157894736 478.9473684210525 760.5263157894736 478.9473684210525 760.5263157894736 478.9473684210525C760.5263157894736 478.9473684210525 760.5263157894736 478.9473684210525 760.5263157894736 478.9473684210525L760.5263157894736 478.9473684210525L542.1052631578947 260.5263157894736C534.2105263157895 252.6315789473685 526.3157894736842 249.9999999999999 518.4210526315788 249.9999999999999z" />
    <glyph glyph-name="pagination-arrow-1"
      unicode="&#x70;&#x61;&#x67;&#x69;&#x6E;&#x61;&#x74;&#x69;&#x6F;&#x6E;&#x2D;&#x61;&#x72;&#x72;&#x6F;&#x77;"
      horiz-adv-x="999.9999999999999" d="M518.4210526315788 249.9999999999999C510.5263157894736 249.9999999999999 502.6315789473683 252.6315789473685 494.7368421052631 260.5263157894736C481.578947368421 273.6842105263157 481.578947368421 294.7368421052631 494.7368421052631 307.8947368421052L657.8947368421052 471.0526315789473H263.1578947368421C244.7368421052632 471.0526315789473 231.5789473684211 486.8421052631578 231.5789473684211 502.6315789473683S247.3684210526316 534.2105263157894 263.1578947368421 534.2105263157894H657.8947368421052L494.7368421052631 697.3684210526314C481.578947368421 710.5263157894735 481.578947368421 731.5789473684208 494.7368421052631 744.736842105263C507.8947368421053 757.8947368421051 528.9473684210526 757.8947368421051 542.1052631578947 744.736842105263L760.5263157894736 526.315789473684C763.1578947368422 523.6842105263156 765.7894736842105 518.4210526315787 768.421052631579 515.7894736842104C771.0526315789474 513.1578947368419 771.0526315789474 507.8947368421051 771.0526315789474 502.6315789473683L771.0526315789474 502.6315789473683C771.0526315789474 502.6315789473683 771.0526315789474 502.6315789473683 771.0526315789474 502.6315789473683L771.0526315789474 502.6315789473683C771.0526315789474 502.6315789473683 771.0526315789474 502.6315789473683 771.0526315789474 502.6315789473683C771.0526315789474 502.6315789473683 771.0526315789474 502.6315789473683 771.0526315789474 502.6315789473683C771.0526315789474 502.6315789473683 771.0526315789474 502.6315789473683 771.0526315789474 502.6315789473683C771.0526315789474 502.6315789473683 771.0526315789474 502.6315789473683 771.0526315789474 502.6315789473683C771.0526315789474 497.3684210526314 771.0526315789474 494.736842105263 768.421052631579 489.4736842105262C765.7894736842105 486.8421052631577 765.7894736842105 481.5789473684209 760.5263157894736 478.9473684210525C760.5263157894736 478.9473684210525 760.5263157894736 478.9473684210525 760.5263157894736 478.9473684210525C760.5263157894736 478.9473684210525 760.5263157894736 478.9473684210525 760.5263157894736 478.9473684210525C760.5263157894736 478.9473684210525 760.5263157894736 478.9473684210525 760.5263157894736 478.9473684210525C760.5263157894736 478.9473684210525 760.5263157894736 478.9473684210525 760.5263157894736 478.9473684210525L760.5263157894736 478.9473684210525C760.5263157894736 478.9473684210525 760.5263157894736 478.9473684210525 760.5263157894736 478.9473684210525C760.5263157894736 478.9473684210525 760.5263157894736 478.9473684210525 760.5263157894736 478.9473684210525L760.5263157894736 478.9473684210525L542.1052631578947 260.5263157894736C534.2105263157895 252.6315789473685 526.3157894736842 249.9999999999999 518.4210526315788 249.9999999999999z" />
    <glyph glyph-name="phone"
      unicode="&#xF111;"
      horiz-adv-x="1000.0000000000001" d="M583.3333333333334 686.6666666666667C640 686.6666666666667 686.6666666666667 640 686.6666666666667 583.3333333333335C686.6666666666667 576.6666666666667 691.6666666666667 570 700 570S713.3333333333334 575 713.3333333333334 583.3333333333335C713.3333333333334 655.0000000000001 655 713.3333333333335 583.3333333333334 713.3333333333335C576.6666666666667 713.3333333333335 570.0000000000001 708.3333333333335 570.0000000000001 700.0000000000001S576.6666666666667 686.6666666666667 583.3333333333334 686.6666666666667zM583.3333333333334 753.3333333333335C678.3333333333335 753.3333333333335 753.3333333333335 676.6666666666667 753.3333333333335 583.3333333333335C753.3333333333335 576.6666666666667 758.3333333333334 570 766.6666666666667 570S780 575 780 583.3333333333335C780 691.6666666666667 691.6666666666667 780.0000000000001 583.3333333333334 780.0000000000001C576.6666666666667 780.0000000000001 570.0000000000001 775.0000000000001 570.0000000000001 766.6666666666667S576.6666666666667 753.3333333333335 583.3333333333334 753.3333333333335zM583.3333333333334 845.0000000000001C576.6666666666667 845.0000000000001 570.0000000000001 840.0000000000001 570.0000000000001 831.6666666666667S575 818.3333333333334 583.3333333333334 818.3333333333334C715 818.3333333333334 820.0000000000001 711.6666666666667 820.0000000000001 581.6666666666667C820.0000000000001 575 825.0000000000001 568.3333333333334 833.3333333333334 568.3333333333334S846.6666666666666 573.3333333333334 846.6666666666666 581.6666666666667C846.6666666666666 728.3333333333335 728.3333333333335 845.0000000000001 583.3333333333334 845.0000000000001zM583.3333333333334 911.6666666666669C576.6666666666667 911.6666666666669 570.0000000000001 906.6666666666669 570.0000000000001 898.3333333333335S575 885.0000000000001 583.3333333333334 885.0000000000001C751.6666666666667 885.0000000000001 886.6666666666667 748.3333333333335 886.6666666666667 581.6666666666667C886.6666666666667 575.0000000000002 891.6666666666667 568.3333333333335 900.0000000000001 568.3333333333335S913.3333333333334 573.3333333333335 913.3333333333334 581.6666666666667C913.3333333333334 765.0000000000001 765 911.6666666666669 583.3333333333334 911.6666666666669zM801.6666666666667 300.0000000000001L723.3333333333334 350.0000000000001C693.3333333333334 368.3333333333334 655 366.6666666666668 628.3333333333333 343.3333333333334L585 305.0000000000001C555 278.3333333333335 511.6666666666666 276.6666666666668 479.9999999999999 300.0000000000003C436.6666666666666 333.3333333333335 401.6666666666667 361.6666666666669 378.3333333333333 385.0000000000003C355 408.3333333333335 328.3333333333333 443.3333333333336 303.3333333333333 485.0000000000002C283.3333333333333 516.6666666666669 290 558.3333333333335 318.3333333333333 585.0000000000002L355 620.0000000000002C383.3333333333333 646.666666666667 388.3333333333333 688.3333333333336 366.6666666666666 720.0000000000002L313.3333333333333 803.3333333333336C299.9999999999999 823.3333333333336 278.3333333333332 836.666666666667 253.3333333333333 840.0000000000002C228.3333333333333 841.666666666667 204.9999999999999 833.3333333333336 188.3333333333332 815.0000000000002L153.3333333333333 778.3333333333336C94.9999999999999 715.0000000000002 74.9999999999999 636.666666666667 101.6666666666666 566.666666666667C128.3333333333332 495.0000000000002 181.6666666666666 390.0000000000003 281.6666666666667 288.3333333333336C348.3333333333333 220.0000000000002 424.9999999999999 161.6666666666669 506.6666666666666 113.3333333333336C539.9999999999999 93.3333333333335 578.3333333333333 83.3333333333336 616.6666666666666 83.3333333333336C679.9999999999999 83.3333333333336 743.3333333333333 110.0000000000003 796.6666666666666 160.0000000000004L815 176.666666666667C833.3333333333334 193.3333333333336 841.6666666666667 216.666666666667 838.3333333333334 241.666666666667S823.3333333333334 286.6666666666668 801.6666666666667 300.0000000000001zM710.0000000000001 328.3333333333335L788.3333333333335 278.3333333333335C801.6666666666667 270.0000000000001 811.6666666666667 255.0000000000001 813.3333333333335 238.3333333333335C813.3333333333335 231.6666666666669 813.3333333333335 225.0000000000002 811.6666666666667 220.0000000000001L655.0000000000001 331.6666666666669C673.3333333333334 340 693.3333333333334 340 710.0000000000001 328.3333333333335zM246.6666666666667 813.3333333333335C248.3333333333334 813.3333333333335 250.0000000000001 813.3333333333335 251.6666666666667 813.3333333333335C268.3333333333334 811.6666666666667 283.3333333333334 803.3333333333335 291.6666666666667 788.3333333333335L345 705.0000000000001C358.3333333333334 683.3333333333335 355.0000000000001 655.0000000000001 336.6666666666667 636.6666666666667L220 806.6666666666667C230.0000000000001 810.0000000000001 238.3333333333334 813.3333333333335 246.6666666666667 813.3333333333335zM780 176.6666666666668C703.3333333333335 103.3333333333335 600 86.6666666666667 520 133.3333333333334C440 180 365 238.3333333333334 300 305C203.3333333333334 401.6666666666667 151.6666666666667 505.0000000000001 126.6666666666667 573.3333333333334C103.3333333333333 633.3333333333335 121.6666666666667 703.3333333333335 173.3333333333333 758.3333333333334L203.3333333333334 790.0000000000001L320 618.3333333333334L301.6666666666667 601.6666666666667C265 566.6666666666667 256.6666666666667 511.6666666666667 281.6666666666667 470C308.3333333333334 426.6666666666667 335 391.6666666666667 360 365C383.3333333333333 340 418.3333333333333 311.6666666666667 463.3333333333333 276.6666666666668C503.3333333333333 246.6666666666668 561.6666666666666 248.3333333333334 600 283.3333333333334L633.3333333333334 313.3333333333334L798.3333333333334 195C796.6666666666666 193.3333333333333 796.6666666666666 193.3333333333333 795 191.6666666666666L780 176.6666666666668z" />
    <glyph glyph-name="phone-1"
      unicode="&#x70;&#x68;&#x6F;&#x6E;&#x65;"
      horiz-adv-x="1000.0000000000001" d="M583.3333333333334 686.6666666666667C640 686.6666666666667 686.6666666666667 640 686.6666666666667 583.3333333333335C686.6666666666667 576.6666666666667 691.6666666666667 570 700 570S713.3333333333334 575 713.3333333333334 583.3333333333335C713.3333333333334 655.0000000000001 655 713.3333333333335 583.3333333333334 713.3333333333335C576.6666666666667 713.3333333333335 570.0000000000001 708.3333333333335 570.0000000000001 700.0000000000001S576.6666666666667 686.6666666666667 583.3333333333334 686.6666666666667zM583.3333333333334 753.3333333333335C678.3333333333335 753.3333333333335 753.3333333333335 676.6666666666667 753.3333333333335 583.3333333333335C753.3333333333335 576.6666666666667 758.3333333333334 570 766.6666666666667 570S780 575 780 583.3333333333335C780 691.6666666666667 691.6666666666667 780.0000000000001 583.3333333333334 780.0000000000001C576.6666666666667 780.0000000000001 570.0000000000001 775.0000000000001 570.0000000000001 766.6666666666667S576.6666666666667 753.3333333333335 583.3333333333334 753.3333333333335zM583.3333333333334 845.0000000000001C576.6666666666667 845.0000000000001 570.0000000000001 840.0000000000001 570.0000000000001 831.6666666666667S575 818.3333333333334 583.3333333333334 818.3333333333334C715 818.3333333333334 820.0000000000001 711.6666666666667 820.0000000000001 581.6666666666667C820.0000000000001 575 825.0000000000001 568.3333333333334 833.3333333333334 568.3333333333334S846.6666666666666 573.3333333333334 846.6666666666666 581.6666666666667C846.6666666666666 728.3333333333335 728.3333333333335 845.0000000000001 583.3333333333334 845.0000000000001zM583.3333333333334 911.6666666666669C576.6666666666667 911.6666666666669 570.0000000000001 906.6666666666669 570.0000000000001 898.3333333333335S575 885.0000000000001 583.3333333333334 885.0000000000001C751.6666666666667 885.0000000000001 886.6666666666667 748.3333333333335 886.6666666666667 581.6666666666667C886.6666666666667 575.0000000000002 891.6666666666667 568.3333333333335 900.0000000000001 568.3333333333335S913.3333333333334 573.3333333333335 913.3333333333334 581.6666666666667C913.3333333333334 765.0000000000001 765 911.6666666666669 583.3333333333334 911.6666666666669zM801.6666666666667 300.0000000000001L723.3333333333334 350.0000000000001C693.3333333333334 368.3333333333335 655 366.6666666666668 628.3333333333333 343.3333333333335L585 305.0000000000001C555 278.3333333333335 511.6666666666666 276.6666666666668 479.9999999999999 300.0000000000003C436.6666666666666 333.3333333333335 401.6666666666667 361.6666666666669 378.3333333333333 385.0000000000003C355 408.3333333333335 328.3333333333333 443.3333333333336 303.3333333333333 485.0000000000002C283.3333333333333 516.6666666666669 290 558.3333333333335 318.3333333333333 585.0000000000002L355 620.0000000000002C383.3333333333333 646.666666666667 388.3333333333333 688.3333333333336 366.6666666666666 720.0000000000002L313.3333333333333 803.3333333333336C299.9999999999999 823.3333333333336 278.3333333333332 836.666666666667 253.3333333333333 840.0000000000002C228.3333333333333 841.666666666667 204.9999999999999 833.3333333333336 188.3333333333332 815.0000000000002L153.3333333333333 778.3333333333336C94.9999999999999 715.0000000000002 74.9999999999999 636.666666666667 101.6666666666666 566.666666666667C128.3333333333332 495.0000000000002 181.6666666666666 390.0000000000003 281.6666666666667 288.3333333333336C348.3333333333333 220.0000000000002 424.9999999999999 161.6666666666669 506.6666666666666 113.3333333333336C539.9999999999999 93.3333333333335 578.3333333333333 83.3333333333336 616.6666666666666 83.3333333333336C679.9999999999999 83.3333333333336 743.3333333333333 110.0000000000003 796.6666666666666 160.0000000000004L815 176.666666666667C833.3333333333334 193.3333333333336 841.6666666666667 216.666666666667 838.3333333333334 241.666666666667S823.3333333333334 286.6666666666668 801.6666666666667 300.0000000000001zM710.0000000000001 328.3333333333335L788.3333333333335 278.3333333333335C801.6666666666667 270.0000000000001 811.6666666666667 255.0000000000001 813.3333333333335 238.3333333333335C813.3333333333335 231.6666666666669 813.3333333333335 225.0000000000002 811.6666666666667 220.0000000000001L655.0000000000001 331.6666666666669C673.3333333333334 340 693.3333333333334 340 710.0000000000001 328.3333333333335zM246.6666666666667 813.3333333333335C248.3333333333334 813.3333333333335 250.0000000000001 813.3333333333335 251.6666666666667 813.3333333333335C268.3333333333335 811.6666666666667 283.3333333333335 803.3333333333335 291.6666666666667 788.3333333333335L345 705.0000000000001C358.3333333333335 683.3333333333335 355.0000000000001 655.0000000000001 336.6666666666667 636.6666666666667L220 806.6666666666667C230.0000000000001 810.0000000000001 238.3333333333334 813.3333333333335 246.6666666666667 813.3333333333335zM780 176.6666666666668C703.3333333333335 103.3333333333335 600 86.6666666666667 520 133.3333333333334C440 180 365 238.3333333333334 300 305C203.3333333333334 401.6666666666667 151.6666666666667 505.0000000000001 126.6666666666667 573.3333333333334C103.3333333333333 633.3333333333335 121.6666666666667 703.3333333333335 173.3333333333333 758.3333333333334L203.3333333333334 790.0000000000001L320 618.3333333333334L301.6666666666667 601.6666666666667C265 566.6666666666667 256.6666666666667 511.6666666666667 281.6666666666667 470C308.3333333333335 426.6666666666667 335 391.6666666666667 360 365C383.3333333333333 340 418.3333333333333 311.6666666666667 463.3333333333333 276.6666666666668C503.3333333333333 246.6666666666668 561.6666666666666 248.3333333333334 600 283.3333333333335L633.3333333333334 313.3333333333335L798.3333333333334 195C796.6666666666666 193.3333333333333 796.6666666666666 193.3333333333333 795 191.6666666666666L780 176.6666666666668z" />
    <glyph glyph-name="pin"
      unicode="&#xF112;"
      horiz-adv-x="1000.0000000000001" d="M333.3333333333334 81.6666666666667L323.3333333333333 91.6666666666667C311.6666666666667 106.6666666666667 3.3333333333333 461.6666666666667 3.3333333333333 638.3333333333335C3.3333333333333 810.0000000000001 148.3333333333334 945.0000000000002 333.3333333333334 945.0000000000002C493.3333333333334 945.0000000000002 663.3333333333334 836.6666666666667 663.3333333333334 636.6666666666667C663.3333333333334 451.6666666666667 356.6666666666667 105 343.3333333333333 90.0000000000001L333.3333333333334 81.6666666666667zM333.3333333333334 920.0000000000002C163.3333333333334 920.0000000000002 30 796.6666666666667 30 636.6666666666667C30 486.6666666666667 281.6666666666667 180 335.0000000000001 118.3333333333333C386.6666666666668 178.3333333333334 638.3333333333334 480 638.3333333333334 636.6666666666667C636.6666666666667 821.6666666666667 480.0000000000001 920.0000000000002 333.3333333333334 920.0000000000002zM341.6666666666667 486.6666666666667H325C240.0000000000001 486.6666666666667 171.6666666666667 555 171.6666666666667 640S240.0000000000001 793.3333333333334 325 793.3333333333334H341.6666666666667C426.6666666666668 793.3333333333334 495 725.0000000000001 495 640S426.6666666666668 486.6666666666667 341.6666666666667 486.6666666666667zM325 770.0000000000001C253.3333333333334 770.0000000000001 195 711.6666666666667 195 640S253.3333333333334 510.0000000000001 325 510.0000000000001H341.6666666666667C413.3333333333334 510.0000000000001 471.6666666666667 568.3333333333334 471.6666666666667 640S413.3333333333334 770.0000000000001 341.6666666666667 770.0000000000001H325z" />
    <glyph glyph-name="pin-1"
      unicode="&#x70;&#x69;&#x6E;"
      horiz-adv-x="1000.0000000000001" d="M333.3333333333335 81.6666666666667L323.3333333333333 91.6666666666667C311.6666666666667 106.6666666666667 3.3333333333333 461.6666666666667 3.3333333333333 638.3333333333335C3.3333333333333 810.0000000000001 148.3333333333334 945.0000000000002 333.3333333333335 945.0000000000002C493.3333333333334 945.0000000000002 663.3333333333334 836.6666666666667 663.3333333333334 636.6666666666667C663.3333333333334 451.6666666666667 356.6666666666667 105 343.3333333333333 90.0000000000001L333.3333333333335 81.6666666666667zM333.3333333333335 920.0000000000002C163.3333333333334 920.0000000000002 30 796.6666666666667 30 636.6666666666667C30 486.6666666666667 281.6666666666667 180 335.0000000000001 118.3333333333333C386.6666666666668 178.3333333333334 638.3333333333334 480 638.3333333333334 636.6666666666667C636.6666666666667 821.6666666666667 480.0000000000001 920.0000000000002 333.3333333333335 920.0000000000002zM341.6666666666667 486.6666666666667H325C240.0000000000001 486.6666666666667 171.6666666666667 555 171.6666666666667 640S240.0000000000001 793.3333333333334 325 793.3333333333334H341.6666666666667C426.6666666666668 793.3333333333334 495 725.0000000000001 495 640S426.6666666666668 486.6666666666667 341.6666666666667 486.6666666666667zM325 770.0000000000001C253.3333333333334 770.0000000000001 195 711.6666666666667 195 640S253.3333333333334 510.0000000000001 325 510.0000000000001H341.6666666666667C413.3333333333335 510.0000000000001 471.6666666666667 568.3333333333334 471.6666666666667 640S413.3333333333335 770.0000000000001 341.6666666666667 770.0000000000001H325z" />
    <glyph glyph-name="play"
      unicode="&#xF113;"
      horiz-adv-x="1000" d="M140.8450704225352 908.450704225352L859.1549295774648 500L140.8450704225352 91.5492957746478V908.450704225352z" />
    <glyph glyph-name="play-1"
      unicode="&#x70;&#x6C;&#x61;&#x79;"
      horiz-adv-x="1000" d="M140.8450704225352 908.450704225352L859.1549295774648 500L140.8450704225352 91.5492957746478V908.450704225352z" />
    <glyph glyph-name="search"
      unicode="&#xF114;"
      horiz-adv-x="1033.3333333333335" d="M856.6666666666667 143.3333333333334L703.3333333333335 316.6666666666668C763.3333333333335 376.6666666666668 796.6666666666667 456.6666666666667 796.6666666666667 540C796.6666666666667 626.6666666666667 763.3333333333335 706.6666666666667 703.3333333333335 770.0000000000001C580 896.6666666666667 373.3333333333333 900.0000000000001 246.6666666666667 773.3333333333335H246.6666666666667C120 650.0000000000001 116.6666666666667 443.3333333333335 240.0000000000001 316.6666666666668C303.3333333333334 253.3333333333335 386.6666666666668 220.0000000000001 470.0000000000001 220.0000000000001C526.6666666666667 220.0000000000001 583.3333333333334 233.3333333333334 633.3333333333334 263.3333333333335L790 86.6666666666667C796.6666666666666 76.6666666666667 810.0000000000001 73.3333333333335 820 73.3333333333335C830 73.3333333333335 840 76.6666666666669 846.6666666666666 83.3333333333335C870.0000000000001 100 870.0000000000001 126.6666666666668 856.6666666666667 143.3333333333334zM303.3333333333334 376.6666666666668C260 423.3333333333334 233.3333333333334 483.3333333333334 236.6666666666667 546.6666666666667C236.6666666666667 610.0000000000001 263.3333333333333 670.0000000000001 310.0000000000001 716.6666666666667H310.0000000000001C403.3333333333335 810.0000000000001 556.6666666666669 806.6666666666667 650 713.3333333333335C693.3333333333334 666.6666666666667 720.0000000000001 606.6666666666667 716.6666666666667 543.3333333333335C716.6666666666667 480.0000000000001 690 420.0000000000001 643.3333333333334 373.3333333333335C546.6666666666666 280 393.3333333333334 280 303.3333333333334 376.6666666666668z" />
    <glyph glyph-name="search-1"
      unicode="&#x73;&#x65;&#x61;&#x72;&#x63;&#x68;"
      horiz-adv-x="1033.3333333333335" d="M856.6666666666667 143.3333333333334L703.3333333333335 316.6666666666668C763.3333333333335 376.6666666666668 796.6666666666667 456.6666666666667 796.6666666666667 540C796.6666666666667 626.6666666666667 763.3333333333335 706.6666666666667 703.3333333333335 770.0000000000001C580 896.6666666666667 373.3333333333333 900.0000000000001 246.6666666666667 773.3333333333335H246.6666666666667C120 650.0000000000001 116.6666666666667 443.3333333333335 240.0000000000001 316.6666666666668C303.3333333333335 253.3333333333335 386.6666666666668 220.0000000000001 470.0000000000001 220.0000000000001C526.6666666666667 220.0000000000001 583.3333333333334 233.3333333333334 633.3333333333334 263.3333333333335L790 86.6666666666667C796.6666666666666 76.6666666666667 810.0000000000001 73.3333333333335 820 73.3333333333335C830 73.3333333333335 840 76.6666666666669 846.6666666666666 83.3333333333335C870.0000000000001 100 870.0000000000001 126.6666666666668 856.6666666666667 143.3333333333334zM303.3333333333335 376.6666666666668C260 423.3333333333335 233.3333333333334 483.3333333333334 236.6666666666667 546.6666666666667C236.6666666666667 610.0000000000001 263.3333333333333 670.0000000000001 310.0000000000001 716.6666666666667H310.0000000000001C403.3333333333335 810.0000000000001 556.6666666666669 806.6666666666667 650 713.3333333333335C693.3333333333334 666.6666666666667 720.0000000000001 606.6666666666667 716.6666666666667 543.3333333333335C716.6666666666667 480.0000000000001 690 420.0000000000001 643.3333333333334 373.3333333333335C546.6666666666666 280 393.3333333333335 280 303.3333333333335 376.6666666666668z" />
    <glyph glyph-name="step-check"
      unicode="&#xF115;"
      horiz-adv-x="1117.6470588235293" d="M411.764705882353 11.7647058823529C388.235294117647 11.7647058823529 370.5882352941176 23.5294117647059 352.9411764705883 41.1764705882353L58.8235294117647 394.1176470588236C35.2941176470588 423.5294117647059 41.1764705882353 470.5882352941177 70.5882352941176 500C100 523.5294117647059 147.0588235294118 517.6470588235295 176.4705882352941 488.2352941176471L411.764705882353 205.8823529411765L941.1764705882352 952.9411764705882C964.705882352941 988.235294117647 1011.7647058823528 994.1176470588236 1041.1764705882351 970.5882352941176C1076.4705882352941 947.0588235294118 1082.3529411764705 900 1058.8235294117646 870.5882352941177L470.5882352941176 47.0588235294118C458.8235294117647 29.4117647058824 435.2941176470589 17.6470588235295 411.764705882353 11.7647058823529C411.764705882353 11.7647058823529 411.764705882353 11.7647058823529 411.764705882353 11.7647058823529z" />
    <glyph glyph-name="step-check-1"
      unicode="&#x73;&#x74;&#x65;&#x70;&#x2D;&#x63;&#x68;&#x65;&#x63;&#x6B;"
      horiz-adv-x="1117.6470588235293" d="M411.764705882353 11.7647058823529C388.235294117647 11.7647058823529 370.5882352941176 23.5294117647059 352.9411764705883 41.1764705882353L58.8235294117647 394.1176470588236C35.2941176470588 423.5294117647059 41.1764705882353 470.5882352941177 70.5882352941176 500C100 523.5294117647059 147.0588235294118 517.6470588235295 176.4705882352941 488.2352941176471L411.764705882353 205.8823529411765L941.1764705882352 952.9411764705882C964.705882352941 988.235294117647 1011.7647058823528 994.1176470588236 1041.1764705882351 970.5882352941176C1076.4705882352941 947.0588235294118 1082.3529411764705 900 1058.8235294117646 870.5882352941177L470.5882352941176 47.0588235294118C458.8235294117647 29.4117647058824 435.2941176470589 17.6470588235295 411.764705882353 11.7647058823529C411.764705882353 11.7647058823529 411.764705882353 11.7647058823529 411.764705882353 11.7647058823529z" />
  </font>
</defs>
</svg>
